<?xml version="1.0" standalone="no"?>
<!DOCTYPE svg PUBLIC "-//W3C//DTD SVG 20010904//EN"
 "http://www.w3.org/TR/2001/REC-SVG-20010904/DTD/svg10.dtd">
<svg version="1.0" xmlns="http://www.w3.org/2000/svg"
 width="560.000000pt" height="560.000000pt" viewBox="0 0 560.000000 560.000000"
 preserveAspectRatio="xMidYMid meet">
<metadata>
Created by potrace 1.11, written by Peter Selinger 2001-2013
</metadata>
<g transform="translate(0.000000,560.000000) scale(0.100000,-0.100000)"
fill="#000000" stroke="none">
<path d="M2257 5594 c-1 -1 -40 -5 -87 -8 -91 -7 -112 -10 -235 -33 -325 -61
-626 -203 -845 -400 -239 -215 -377 -478 -426 -813 -21 -142 -6 -399 32 -553
37 -149 119 -329 217 -477 50 -76 182 -246 224 -289 29 -30 29 -35 -4 -50 -53
-24 -239 -134 -328 -194 -405 -271 -633 -573 -710 -939 -28 -131 -37 -340 -22
-488 44 -419 253 -762 610 -1003 166 -112 478 -240 667 -273 14 -3 32 -7 40
-9 103 -31 386 -58 605 -59 158 0 300 8 400 24 33 5 76 12 95 14 144 20 514
120 544 147 6 5 16 9 24 9 16 0 40 10 219 96 72 35 177 90 233 124 l101 60 92
-68 c256 -189 479 -295 732 -348 68 -14 134 -18 275 -19 258 0 369 15 560 76
94 31 221 88 250 114 13 12 15 66 15 387 -1 230 -5 372 -10 371 -6 0 -53 -8
-105 -17 -141 -23 -164 -25 -296 -27 -265 -2 -406 57 -615 259 l-56 54 94 125
c215 285 386 580 553 948 30 67 121 296 125 317 2 9 9 27 16 40 7 13 12 24 10
26 -1 1 6 27 14 57 9 30 15 58 13 62 -3 8 5 8 -218 18 -255 11 -307 14 -420
19 -58 3 -172 8 -255 11 -82 3 -159 8 -170 10 -30 6 -41 -5 -59 -60 -27 -79
-77 -217 -92 -250 -7 -16 -25 -59 -39 -95 -67 -164 -271 -532 -284 -511 -4 5
-199 204 -434 441 l-428 431 68 36 c330 175 633 411 775 603 100 136 193 337
213 464 6 36 13 71 21 106 3 14 8 108 10 210 4 202 -6 280 -52 424 -59 184
-150 332 -286 467 -242 240 -584 383 -1013 425 -64 6 -353 13 -358 8z m304
-909 c232 -77 345 -295 305 -589 -23 -168 -135 -328 -317 -452 -107 -74 -275
-165 -291 -159 -8 3 -48 42 -89 87 -40 45 -84 92 -97 105 -47 47 -136 181
-172 258 -82 174 -84 340 -8 503 36 76 125 170 196 206 141 71 331 88 473 41z
m-749 -2379 c7 -7 108 -111 223 -231 116 -120 237 -246 270 -280 222 -230 464
-482 528 -549 l76 -79 -57 -27 c-31 -15 -79 -35 -107 -45 -27 -10 -54 -22 -60
-25 -5 -4 -23 -11 -40 -15 -16 -5 -34 -9 -40 -11 -229 -62 -341 -78 -535 -77
-192 0 -323 27 -458 95 -158 78 -276 228 -298 378 -3 19 -7 41 -10 49 -6 19
-6 179 1 211 42 211 121 340 300 486 38 32 181 131 192 134 1 0 8 -6 15 -14z"/>
</g>
</svg>
