<?xml version="1.0" encoding="utf-8"?>
<!-- Generator: Adobe Illustrator 16.0.0, SVG Export Plug-In . SVG Version: 6.00 Build 0)  -->
<!DOCTYPE svg PUBLIC "-//W3C//DTD SVG 1.1//EN" "http://www.w3.org/Graphics/SVG/1.1/DTD/svg11.dtd">
<svg version="1.1" id="Layer_1" xmlns="http://www.w3.org/2000/svg" xmlns:xlink="http://www.w3.org/1999/xlink" x="0px" y="0px"
	 width="653.067px" height="2638.242px" viewBox="0 0 653.067 2638.242" enable-background="new 0 0 653.067 2638.242"
	 xml:space="preserve">
<path fill="#D06204" d="M247.154,2000.939l-54.736-43.806l8.287-4.547l15.988,12.91l25.855-14.184l-2.477-20.323l7.656-4.2
	l7.984,69.455L247.154,2000.939z M243.525,1958.863l-20.898,11.465l24.197,19.541l0.361-0.197L243.525,1958.863z"/>
<path fill="#EE9BBA" d="M76.81,2365.411l42.709,17.451l-24.486,59.923l-41.85-17.1l2.797-6.85l33.861,13.837l7.695-18.834
	l-26.918-10.999l2.76-6.753l26.918,10.999l8.434-20.641l-34.717-14.187L76.81,2365.411z"/>
<path fill="#F7F80C" d="M300.064,2250.817l-9.047,2.201l-1.414-6.628l8.955-2.25c-0.691-6.231,0.607-12.898,4.055-19.21
	c9.064-16.592,27.412-21.674,44.904-12.118c17.496,9.556,23.135,27.739,14.07,44.332c-9.014,16.501-27.41,21.674-44.904,12.117
	C308.388,2264.73,302.742,2258.133,300.064,2250.817z M354.916,2253.499c6.699-12.264,2.105-25.075-11.781-32.661
	s-27.238-4.576-33.938,7.688c-2.611,4.779-3.605,9.387-3.076,13.774l10.762-2.552l1.455,6.767l-10.203,2.388
	c2.359,4.684,6.76,8.844,12.982,12.242C335.003,2268.731,348.216,2265.763,354.916,2253.499z"/>
<path fill="#329D51" d="M577.774,2591.111l-69.029-10.056l4.596-7.906l58.08,8.445l0.209-0.355l-36.395-45.756l4.545-7.817
	l42.848,55.095L577.774,2591.111z"/>
<path fill="#254EA0" d="M163.552,1860.312c-2.49-7.654-3.455-15.778-2.473-23.306c-4.412-1.237-7.766-1.561-11.25,0.621
	c-1.305,0.817-2.557,1.723-3.939,3.194l-2.945-4.702c0.969-1.939,2.816-3.825,4.994-5.188c3.918-2.454,7.807-2.828,14.92-1.343
	c2.215-6.723,6.371-12.477,12.729-16.459c10.014-6.271,21.342-5.607,27.287,3.885c4.635,7.402,2.889,14.68-1.973,23.18
	c5.764,1.846,10.547,4.062,13.656,9.026c5.018,8.012,2.359,17.315-6.176,22.661c-8.795,5.508-16.803,3.369-21.221-3.684
	c-4.361-6.967-2.32-13.58,3.215-22.746l-22.738-6.49c-0.561,5.687,0.262,11.839,2.402,17.773L163.552,1860.312z M169.341,1831.227
	l0.338,0.151l25.002,7.013c3.447-5.917,4.643-10.787,0.988-16.621c-3.6-5.748-10.506-6.515-16.604-2.697
	C174.365,1822.018,171.22,1826.29,169.341,1831.227z M196.455,1847.223c-5.154,7.835-6.012,11.888-2.957,16.764
	c2.236,3.57,6.627,5.549,11.504,2.494c4.266-2.672,6.059-7.553,2.732-12.865C205.388,1849.871,201.15,1848.524,196.455,1847.223z"/>
<path fill="#D06204" d="M70.796,1824.317l84.141,89.459l-15.494,5.844l-24.551-26.329l-48.334,18.229l-0.711,35.856l-14.316,5.399
	l3.266-122.425L70.796,1824.317z M66.724,1898.186l39.07-14.735l-37.152-39.853l-0.674,0.255L66.724,1898.186z"/>
<path fill="#EE9BBA" d="M343.39,2126.402l-69.189-41.766l58.604-97.078l67.801,40.928l-6.697,11.095l-54.857-33.115l-18.418,30.511
	l43.607,26.325l-6.604,10.94l-43.607-26.324l-20.186,33.438l56.244,33.952L343.39,2126.402z"/>
<path fill="#F7F80C" d="M115.269,2223.877l15.848-3.855l2.477,11.609l-15.688,3.941c1.213,10.917-1.062,22.595-7.104,33.652
	c-15.875,29.064-48.016,37.967-78.66,21.228c-30.646-16.739-40.523-48.592-24.648-77.658c15.791-28.906,48.018-37.967,78.662-21.227
	C100.689,2199.505,110.578,2211.062,115.269,2223.877z M19.183,2219.18c-11.734,21.483-3.689,43.926,20.639,57.214
	c24.326,13.288,47.715,8.016,59.451-13.468c4.572-8.373,6.314-16.444,5.385-24.13l-18.85,4.471l-2.549-11.854l17.871-4.184
	c-4.131-8.204-11.842-15.492-22.74-21.445C54.064,2192.496,30.917,2197.696,19.183,2219.18z"/>
<path fill="#329D51" d="M24.746,2527.103l120.922,17.615l-8.051,13.85l-101.742-14.795l-0.363,0.623l63.752,80.152l-7.959,13.694
	l-75.061-96.513L24.746,2527.103z"/>
<path fill="#254EA0" d="M262.965,2436.016c4.363,13.408,6.055,27.64,4.332,40.825c7.727,2.168,13.604,2.735,19.705-1.087
	c2.289-1.433,4.482-3.019,6.902-5.597l5.16,8.237c-1.695,3.398-4.936,6.701-8.75,9.09c-6.863,4.299-13.674,4.954-26.137,2.353
	c-3.879,11.775-11.158,21.855-22.295,28.83c-17.543,10.987-37.385,9.823-47.799-6.804c-8.121-12.967-5.062-25.715,3.453-40.604
	c-10.096-3.234-18.475-7.117-23.922-15.812c-8.789-14.035-4.131-30.332,10.82-39.696c15.406-9.648,29.434-5.902,37.172,6.453
	c7.643,12.203,4.066,23.788-5.631,39.844l39.83,11.37c0.982-9.961-0.459-20.739-4.207-31.134L262.965,2436.016z M252.824,2486.966
	l-0.592-0.266l-43.799-12.284c-6.037,10.365-8.129,18.896-1.729,29.116c6.307,10.068,18.404,11.411,29.082,4.724
	C244.023,2503.097,249.531,2495.612,252.824,2486.966z M205.328,2458.945c9.031-13.726,10.531-20.825,5.182-29.367
	c-3.918-6.254-11.609-9.72-20.152-4.369c-7.475,4.682-10.613,13.231-4.785,22.537
	C189.68,2454.305,197.104,2456.664,205.328,2458.945z"/>
<path fill="#F7F80C" d="M220.549,1753.864l24.803-65.1l6.82,6.459l-7.352,19.051l21.277,20.147l18.473-8.521l6.303,5.968
	l-63.281,28.665L220.549,1753.864z M259.252,1737.642l-17.199-16.287l-11.133,28.833l0.297,0.281L259.252,1737.642z"/>
<path fill="#254EA0" d="M252.727,2601.778l16.021-42.953l60.268,22.481l-15.701,42.092l-6.887-2.569l12.703-34.056l-18.941-7.066
	l-10.1,27.073l-6.791-2.533l10.098-27.073l-20.758-7.743l-13.025,34.917L252.727,2601.778z"/>
<path fill="#D06204" d="M131.857,2084.436l9.234-0.576l0.229,6.729l-9.154,0.641c-0.406,6.218-2.84,12.513-7.312,18.087
	c-11.758,14.653-30.592,16.428-46.041,4.032c-15.451-12.396-17.799-31.168-6.041-45.821c11.691-14.573,30.59-16.428,46.041-4.031
	C126.138,2069.374,130.511,2076.812,131.857,2084.436z M78.664,2072.256c-8.691,10.831-6.43,24.165,5.836,34.005
	c12.264,9.841,25.85,9.223,34.539-1.608c3.387-4.221,5.164-8.556,5.408-12.939l-10.971,0.621l-0.246-6.873l10.398-0.559
	c-1.492-4.993-5.072-9.83-10.566-14.239C100.796,2060.823,87.353,2061.426,78.664,2072.256z"/>
<path fill="#EE9BBA" d="M227.888,2281.32l57.604,38.559l-7.506,5.124l-48.473-32.43l-0.338,0.23l13.057,56.608l-7.42,5.066
	l-14.852-67.747L227.888,2281.32z"/>
<path fill="#329D51" d="M209.65,2148.632c6.859-4.115,14.512-6.858,22.021-7.581c0.217-4.548-0.217-7.869-3.105-10.757
	c-1.082-1.083-2.238-2.094-3.971-3.105l3.898-3.897c2.094,0.505,4.332,1.877,6.137,3.682c3.25,3.249,4.477,6.931,4.621,14.15
	c7.004,0.649,13.5,3.394,18.771,8.664c8.303,8.303,10.18,19.42,2.311,27.29c-6.137,6.137-13.574,6.064-22.887,3.249
	c-0.506,5.992-1.588,11.118-5.703,15.233c-6.643,6.643-16.244,6.138-23.32-0.938c-7.293-7.292-7.002-15.522-1.154-21.37
	c5.775-5.775,12.635-5.271,22.742-1.949l1.227-23.465c-5.633,0.723-11.408,2.889-16.678,6.282L209.65,2148.632z M239.107,2147.766
	l-0.072,0.361l-1.227,25.773c6.498,2.021,11.479,2.095,16.316-2.743c4.766-4.765,3.971-11.624-1.084-16.678
	C249.142,2150.581,244.306,2148.487,239.107,2147.766z M229.65,2177.583c-8.736-3.249-12.852-3.177-16.895,0.865
	c-2.961,2.961-3.898,7.653,0.145,11.697c3.537,3.537,8.664,4.187,13.068-0.218C229.072,2186.824,229.433,2182.42,229.65,2177.583z"
	/>
<path fill="#F7F80C" d="M399.06,1956.78l43.727-114.763l12.023,11.386l-12.963,33.584l37.51,35.519l32.566-15.021l11.109,10.52
	l-111.557,50.532L399.06,1956.78z M467.288,1928.182l-30.32-28.712l-19.623,50.828l0.523,0.495L467.288,1928.182z"/>
<path fill="#254EA0" d="M331.371,2510.179l28.246-75.721l106.244,39.632l-27.68,74.202l-12.143-4.529l22.396-60.036l-33.393-12.456
	l-17.803,47.726l-11.973-4.466l17.803-47.726l-36.596-13.651l-22.961,61.555L331.371,2510.179z"/>
<path fill="#D06204" d="M529.006,2081.385l16.277-1.017l0.404,11.863l-16.137,1.13c-0.719,10.961-5.008,22.059-12.893,31.886
	c-20.727,25.831-53.93,28.96-81.164,7.107c-27.236-21.853-31.377-54.944-10.65-80.776c20.613-25.69,53.928-28.96,81.164-7.106
	C518.924,2054.834,526.635,2067.945,529.006,2081.385z M435.232,2059.914c-15.32,19.093-11.334,42.599,10.287,59.946
	c21.619,17.347,45.57,16.257,60.891-2.836c5.969-7.441,9.1-15.082,9.533-22.812l-19.342,1.096l-0.432-12.116l18.328-0.985
	c-2.629-8.802-8.941-17.328-18.627-25.101C474.25,2039.759,450.551,2040.821,435.232,2059.914z"/>
<path fill="#EE9BBA" d="M421.511,2281.32l101.547,67.975l-13.23,9.032l-85.451-57.169l-0.596,0.406l23.018,99.794l-13.082,8.931
	l-26.178-119.43L421.511,2281.32z"/>
<path fill="#329D51" d="M543.121,2206.442c12.09-7.255,25.582-12.091,38.818-13.364c0.383-8.018-0.381-13.872-5.473-18.963
	c-1.908-1.909-3.945-3.691-7-5.474l6.873-6.872c3.691,0.891,7.635,3.309,10.818,6.491c5.727,5.727,7.891,12.218,8.145,24.945
	c12.346,1.145,23.801,5.981,33.092,15.272c14.637,14.637,17.945,34.236,4.072,48.109c-10.818,10.818-23.928,10.691-40.346,5.728
	c-0.891,10.563-2.799,19.6-10.055,26.854c-11.709,11.71-28.637,10.819-41.109-1.654c-12.855-12.854-12.346-27.364-2.035-37.673
	c10.182-10.182,22.271-9.291,40.092-3.437l2.162-41.364c-9.928,1.273-20.109,5.092-29.4,11.073L543.121,2206.442z M595.048,2204.915
	l-0.127,0.637l-2.164,45.437c11.455,3.563,20.236,3.691,28.764-4.836c8.4-8.4,7-20.491-1.908-29.401
	C612.74,2209.879,604.212,2206.188,595.048,2204.915z M578.375,2257.479c-15.398-5.728-22.654-5.601-29.781,1.526
	c-5.219,5.219-6.873,13.491,0.254,20.619c6.238,6.236,15.273,7.382,23.037-0.383
	C577.357,2273.771,577.994,2266.007,578.375,2257.479z"/>
<path fill="#D06204" d="M563.182,2385.418l54.736,43.806l-8.287,4.547l-15.99-12.91l-25.854,14.184l2.477,20.323l-7.658,4.2
	l-7.982-69.455L563.182,2385.418z M566.809,2427.494l20.9-11.465l-24.197-19.541l-0.361,0.197L566.809,2427.494z"/>
<path fill="#EE9BBA" d="M604.345,2016.367l-42.707-17.451l24.486-59.923l41.85,17.1l-2.797,6.85l-33.861-13.837l-7.695,18.834
	l26.918,10.999l-2.76,6.753l-26.918-10.999l-8.434,20.641l34.717,14.187L604.345,2016.367z"/>
<path fill="#F7F80C" d="M426.003,1717.736l9.045-2.201l1.416,6.628l-8.957,2.25c0.693,6.231-0.605,12.898-4.055,19.21
	c-9.062,16.592-27.41,21.674-44.904,12.118s-23.133-27.739-14.07-44.332c9.014-16.501,27.41-21.674,44.904-12.117
	C417.679,1703.823,423.325,1710.421,426.003,1717.736z M371.151,1715.055c-6.699,12.264-2.107,25.075,11.781,32.661
	c13.887,7.586,27.238,4.576,33.938-7.688c2.609-4.779,3.605-9.387,3.074-13.774l-10.76,2.552l-1.455-6.767l10.203-2.388
	c-2.359-4.684-6.762-8.844-12.982-12.242C391.062,1699.822,377.851,1702.791,371.151,1715.055z"/>
<path fill="#329D51" d="M510.963,1786.488l69.031,10.056l-4.598,7.906l-58.08-8.445l-0.207,0.355l36.395,45.756l-4.545,7.817
	l-42.85-55.095L510.963,1786.488z"/>
<path fill="#254EA0" d="M347.83,1856.704c2.492,7.654,3.457,15.778,2.475,23.306c4.41,1.237,7.766,1.561,11.248-0.621
	c1.307-0.817,2.559-1.723,3.941-3.194l2.945,4.702c-0.969,1.939-2.818,3.825-4.996,5.188c-3.918,2.454-7.805,2.828-14.92,1.343
	c-2.215,6.723-6.369,12.477-12.727,16.459c-10.014,6.271-21.342,5.607-27.287-3.885c-4.635-7.402-2.889-14.68,1.971-23.18
	c-5.762-1.846-10.545-4.062-13.654-9.026c-5.018-8.012-2.359-17.315,6.176-22.661c8.795-5.508,16.803-3.369,21.219,3.684
	c4.363,6.967,2.322,13.58-3.213,22.746l22.738,6.49c0.561-5.687-0.264-11.839-2.402-17.773L347.83,1856.704z M342.042,1885.789
	l-0.338-0.151l-25.004-7.013c-3.447,5.917-4.641,10.787-0.986,16.621c3.6,5.748,10.506,6.515,16.602,2.697
	C337.019,1894.998,340.162,1890.726,342.042,1885.789z M314.929,1869.793c5.154-7.835,6.012-11.888,2.957-16.764
	c-2.236-3.57-6.627-5.549-11.504-2.494c-4.268,2.672-6.059,7.553-2.732,12.865C305.996,1867.145,310.234,1868.491,314.929,1869.793z
	"/>
<path fill="#F7F80C" d="M142.943,1620.454l-43.727,114.763l-12.023-11.386l12.963-33.584l-37.51-35.519l-32.566,15.021
	l-11.109-10.52l111.557-50.532L142.943,1620.454z M74.715,1649.053l30.32,28.712l19.623-50.828l-0.523-0.495L74.715,1649.053z"/>
<path fill="#254EA0" d="M147.703,1019.674l-28.246,75.721l-106.244-39.632l27.68-74.202l12.143,4.529l-22.396,60.036l33.393,12.456
	l17.803-47.726l11.973,4.466l-17.803,47.726l36.596,13.651l22.961-61.555L147.703,1019.674z"/>
<path fill="#D06204" d="M235.617,1446.155l-16.277,1.017l-0.404-11.863l16.137-1.13c0.719-10.961,5.008-22.059,12.893-31.886
	c20.727-25.831,53.93-28.96,81.164-7.107c27.236,21.853,31.377,54.944,10.65,80.776c-20.613,25.69-53.928,28.96-81.164,7.106
	C245.699,1472.706,237.988,1459.595,235.617,1446.155z M329.39,1467.626c15.32-19.093,11.334-42.599-10.287-59.946
	c-21.619-17.347-45.57-16.257-60.891,2.836c-5.969,7.441-9.1,15.082-9.533,22.812l19.342-1.096l0.432,12.116l-18.328,0.985
	c2.629,8.802,8.941,17.328,18.627,25.101C290.373,1487.781,314.072,1486.719,329.39,1467.626z"/>
<path fill="#EE9BBA" d="M293.228,1224.363l-101.547-67.975l13.23-9.032l85.451,57.169l0.596-0.406l-23.018-99.794l13.082-8.931
	l26.178,119.43L293.228,1224.363z"/>
<path fill="#329D51" d="M151.363,1315.357c-12.09,7.255-25.582,12.091-38.818,13.364c-0.383,8.018,0.381,13.872,5.473,18.963
	c1.908,1.909,3.945,3.691,7,5.474l-6.873,6.872c-3.691-0.891-7.635-3.309-10.818-6.491c-5.727-5.727-7.891-12.218-8.145-24.945
	c-12.346-1.145-23.801-5.981-33.092-15.272c-14.637-14.637-17.945-34.236-4.072-48.109c10.818-10.818,23.928-10.691,40.346-5.728
	c0.891-10.563,2.799-19.6,10.055-26.854c11.709-11.71,28.637-10.819,41.109,1.654c12.855,12.854,12.346,27.364,2.035,37.673
	c-10.182,10.182-22.271,9.291-40.092,3.437l-2.162,41.364c9.928-1.273,20.109-5.092,29.4-11.073L151.363,1315.357z M99.435,1316.885
	l0.127-0.637l2.164-45.437c-11.455-3.563-20.236-3.691-28.764,4.836c-8.4,8.4-7,20.491,1.908,29.401
	C81.744,1311.921,90.271,1315.612,99.435,1316.885z M116.109,1264.32c15.398,5.728,22.654,5.601,29.781-1.526
	c5.219-5.219,6.873-13.491-0.254-20.619c-6.238-6.236-15.273-7.382-23.037,0.383C117.126,1248.029,116.49,1255.793,116.109,1264.32z
	"/>
<path fill="#D06204" d="M70.796,0l84.141,89.459l-15.494,5.844l-24.551-26.329L66.558,87.203l-0.711,35.856l-14.316,5.399
	L54.796,6.034L70.796,0z M66.724,73.868l39.07-14.735L68.642,19.28l-0.674,0.255L66.724,73.868z"/>
<path fill="#EE9BBA" d="M354.834,312.545l-69.189-41.766l58.604-97.078l67.801,40.928l-6.697,11.095l-54.857-33.115l-18.418,30.511
	l43.607,26.325l-6.604,10.94l-43.607-26.324L305.288,267.5l56.244,33.952L354.834,312.545z"/>
<path fill="#F7F80C" d="M115.269,399.56l15.848-3.855l2.477,11.609l-15.688,3.941c1.213,10.917-1.062,22.595-7.104,33.652
	c-15.875,29.064-48.016,37.967-78.66,21.228C1.496,449.396-8.381,417.543,7.494,388.477c15.791-28.906,48.018-37.967,78.662-21.227
	C100.689,375.188,110.578,386.744,115.269,399.56z M19.183,394.862c-11.734,21.483-3.689,43.926,20.639,57.214
	c24.326,13.288,47.715,8.016,59.451-13.468c4.572-8.373,6.314-16.444,5.385-24.13l-18.85,4.471l-2.549-11.854l17.871-4.184
	C97,394.708,89.289,387.42,78.39,381.467C54.064,368.179,30.917,373.379,19.183,394.862z"/>
<path fill="#329D51" d="M62.119,681.339l120.922,17.615l-8.051,13.85L73.248,698.009l-0.363,0.623l63.752,80.152l-7.959,13.694
	l-75.061-96.513L62.119,681.339z"/>
<path fill="#254EA0" d="M314.982,508.354c4.363,13.408,6.055,27.64,4.332,40.825c7.727,2.168,13.604,2.735,19.705-1.087
	c2.289-1.433,4.482-3.019,6.902-5.597l5.16,8.237c-1.695,3.398-4.936,6.701-8.75,9.09c-6.863,4.299-13.674,4.954-26.137,2.353
	c-3.879,11.775-11.158,21.855-22.295,28.83c-17.543,10.987-37.385,9.823-47.799-6.804c-8.121-12.967-5.062-25.715,3.453-40.604
	c-10.096-3.234-18.475-7.117-23.922-15.812c-8.789-14.035-4.131-30.332,10.82-39.696c15.406-9.648,29.434-5.902,37.172,6.453
	c7.643,12.203,4.066,23.788-5.631,39.844l39.83,11.37c0.982-9.961-0.459-20.739-4.207-31.134L314.982,508.354z M304.841,559.304
	l-0.592-0.266l-43.799-12.284c-6.037,10.365-8.129,18.896-1.729,29.116c6.307,10.068,18.404,11.411,29.082,4.724
	C296.041,575.435,301.548,567.95,304.841,559.304z M257.345,531.283c9.031-13.726,10.531-20.825,5.182-29.367
	c-3.918-6.254-11.609-9.72-20.152-4.369c-7.475,4.682-10.613,13.231-4.785,22.537C241.697,526.643,249.121,529.002,257.345,531.283z
	"/>
<path fill="#F7F80C" d="M225.019,155.607l24.803-65.1l6.82,6.459l-7.352,19.051l21.277,20.147l18.473-8.521l6.303,5.968
	l-63.281,28.665L225.019,155.607z M263.722,139.385l-17.199-16.287l-11.133,28.833l0.297,0.281L263.722,139.385z"/>
<path fill="#254EA0" d="M211.728,732.043l16.021-42.953l60.268,22.481l-15.701,42.092l-6.887-2.569l12.703-34.056l-18.941-7.066
	l-10.1,27.073l-6.791-2.533l10.098-27.073l-20.758-7.743l-13.025,34.917L211.728,732.043z"/>
<path fill="#D06204" d="M131.857,260.118l9.234-0.576l0.229,6.729l-9.154,0.641c-0.406,6.218-2.84,12.513-7.312,18.087
	c-11.758,14.653-30.592,16.428-46.041,4.032c-15.451-12.396-17.799-31.168-6.041-45.821c11.691-14.573,30.59-16.428,46.041-4.031
	C126.138,245.057,130.511,252.494,131.857,260.118z M78.664,247.938c-8.691,10.831-6.43,24.165,5.836,34.005
	c12.264,9.841,25.85,9.223,34.539-1.608c3.387-4.221,5.164-8.556,5.408-12.939l-10.971,0.621l-0.246-6.873l10.398-0.559
	c-1.492-4.993-5.072-9.83-10.566-14.239C100.796,236.506,87.353,237.108,78.664,247.938z"/>
<path fill="#EE9BBA" d="M139.177,485.932l57.604,38.559l-7.506,5.124l-48.473-32.43l-0.338,0.23l13.057,56.608l-7.42,5.066
	l-14.852-67.747L139.177,485.932z"/>
<path fill="#329D51" d="M209.65,324.314c6.859-4.115,14.512-6.858,22.021-7.581c0.217-4.548-0.217-7.869-3.105-10.757
	c-1.082-1.083-2.238-2.094-3.971-3.105l3.898-3.897c2.094,0.505,4.332,1.877,6.137,3.682c3.25,3.249,4.477,6.931,4.621,14.15
	c7.004,0.649,13.5,3.394,18.771,8.664c8.303,8.303,10.18,19.42,2.311,27.29c-6.137,6.137-13.574,6.064-22.887,3.249
	c-0.506,5.992-1.588,11.118-5.703,15.233c-6.643,6.643-16.244,6.138-23.32-0.938c-7.293-7.292-7.002-15.522-1.154-21.37
	c5.775-5.775,12.635-5.271,22.742-1.949l1.227-23.465c-5.633,0.723-11.408,2.889-16.678,6.282L209.65,324.314z M239.107,323.448
	l-0.072,0.361l-1.227,25.773c6.498,2.021,11.479,2.095,16.316-2.743c4.766-4.765,3.971-11.624-1.084-16.678
	C249.142,326.264,244.306,324.17,239.107,323.448z M229.65,353.266c-8.736-3.249-12.852-3.177-16.895,0.865
	c-2.961,2.961-3.898,7.653,0.145,11.697c3.537,3.537,8.664,4.187,13.068-0.218C229.072,362.507,229.433,358.103,229.65,353.266z"/>
<path fill="#D06204" d="M244.296,1055.71l-54.736-43.806l8.287-4.547l15.988,12.91l25.855-14.184l-2.477-20.323l7.656-4.2
	l7.984,69.455L244.296,1055.71z M240.667,1013.634l-20.898,11.465l24.197,19.541l0.361-0.197L240.667,1013.634z"/>
<path fill="#EE9BBA" d="M138.162,1420.182l42.709,17.451l-24.486,59.923l-41.85-17.1l2.797-6.85l33.861,13.837l7.695-18.834
	l-26.918-10.999l2.76-6.753l26.918,10.999l8.434-20.641l-34.717-14.187L138.162,1420.182z"/>
<path fill="#F7F80C" d="M193.537,1301.986l-9.047,2.201l-1.414-6.628l8.955-2.25c-0.691-6.231,0.607-12.898,4.055-19.21
	c9.064-16.592,27.412-21.674,44.904-12.118c17.496,9.556,23.135,27.739,14.07,44.332c-9.014,16.501-27.41,21.674-44.904,12.117
	C201.861,1315.899,196.214,1309.302,193.537,1301.986z M248.388,1304.668c6.699-12.264,2.105-25.075-11.781-32.661
	s-27.238-4.576-33.938,7.688c-2.611,4.779-3.605,9.387-3.076,13.774l10.762-2.552l1.455,6.767l-10.203,2.388
	c2.359,4.684,6.76,8.844,12.982,12.242C228.476,1319.9,241.689,1316.932,248.388,1304.668z"/>
<path fill="#329D51" d="M256.151,1603.334l-69.029-10.056l4.596-7.906l58.08,8.445l0.209-0.355l-36.395-45.756l4.545-7.817
	l42.848,55.095L256.151,1603.334z"/>
<path fill="#254EA0" d="M160.695,915.082c-2.49-7.654-3.455-15.778-2.473-23.306c-4.412-1.237-7.766-1.561-11.25,0.621
	c-1.305,0.817-2.557,1.723-3.939,3.194l-2.945-4.702c0.969-1.939,2.816-3.825,4.994-5.188c3.918-2.454,7.807-2.828,14.92-1.343
	c2.215-6.723,6.371-12.477,12.729-16.459c10.014-6.271,21.342-5.607,27.287,3.885c4.635,7.402,2.889,14.68-1.973,23.18
	c5.764,1.846,10.547,4.062,13.656,9.026c5.018,8.012,2.359,17.315-6.176,22.661c-8.795,5.508-16.803,3.369-21.221-3.684
	c-4.361-6.967-2.32-13.58,3.215-22.746l-22.738-6.49c-0.561,5.687,0.262,11.839,2.402,17.773L160.695,915.082z M166.484,885.997
	l0.338,0.151l25.002,7.013c3.447-5.917,4.643-10.787,0.988-16.621c-3.6-5.748-10.506-6.515-16.604-2.697
	C171.507,876.788,168.363,881.061,166.484,885.997z M193.597,901.993c-5.154,7.835-6.012,11.888-2.957,16.764
	c2.236,3.57,6.627,5.549,11.504,2.494c4.266-2.672,6.059-7.553,2.732-12.865C202.531,904.642,198.292,903.295,193.597,901.993z"/>
<path fill="#F7F80C" d="M470.279,151.484l43.727-114.763l12.023,11.386l-12.963,33.584l37.51,35.519l32.566-15.021l11.109,10.52
	l-111.557,50.532L470.279,151.484z M538.508,122.886l-30.32-28.712l-19.623,50.828l0.523,0.495L538.508,122.886z"/>
<path fill="#254EA0" d="M295.342,915.591l28.246-75.721l106.244,39.632l-27.68,74.202l-12.143-4.529l22.396-60.036l-33.393-12.456
	l-17.803,47.726l-11.973-4.466l17.803-47.726l-36.596-13.651l-22.961,61.555L295.342,915.591z"/>
<path fill="#D06204" d="M598.569,281.415l16.277-1.017l0.404,11.863l-16.137,1.13c-0.719,10.961-5.008,22.059-12.893,31.886
	c-20.727,25.831-53.93,28.96-81.164,7.107c-27.236-21.853-31.377-54.944-10.65-80.776c20.613-25.69,53.928-28.96,81.164-7.106
	C588.487,254.864,596.198,267.976,598.569,281.415z M504.795,259.944c-15.32,19.093-11.334,42.599,10.287,59.946
	c21.619,17.347,45.57,16.257,60.891-2.836c5.969-7.441,9.1-15.082,9.533-22.812l-19.342,1.096l-0.432-12.116l18.328-0.985
	c-2.629-8.802-8.941-17.328-18.627-25.101C543.813,239.789,520.114,240.852,504.795,259.944z"/>
<path fill="#EE9BBA" d="M457.973,503.207l101.547,67.975l-13.23,9.032l-85.451-57.169l-0.596,0.406l23.018,99.794l-13.082,8.931
	L444,512.746L457.973,503.207z"/>
<path fill="#329D51" d="M386.682,1026.233c12.09-7.255,25.582-12.091,38.818-13.364c0.383-8.018-0.381-13.872-5.473-18.963
	c-1.908-1.909-3.945-3.691-7-5.474l6.873-6.872c3.691,0.891,7.635,3.309,10.818,6.491c5.727,5.727,7.891,12.218,8.145,24.945
	c12.346,1.145,23.801,5.981,33.092,15.272c14.637,14.637,17.945,34.236,4.072,48.109c-10.818,10.818-23.928,10.691-40.346,5.728
	c-0.891,10.563-2.799,19.6-10.055,26.854c-11.709,11.71-28.637,10.819-41.109-1.654c-12.855-12.854-12.346-27.364-2.035-37.673
	c10.182-10.182,22.271-9.291,40.092-3.437l2.162-41.364c-9.928,1.273-20.109,5.092-29.4,11.073L386.682,1026.233z M438.61,1024.706
	l-0.127,0.637l-2.164,45.437c11.455,3.563,20.236,3.691,28.764-4.836c8.4-8.4,7-20.491-1.908-29.401
	C456.301,1029.67,447.774,1025.979,438.61,1024.706z M421.936,1077.271c-15.398-5.728-22.654-5.601-29.781,1.526
	c-5.219,5.219-6.873,13.491,0.254,20.619c6.238,6.236,15.273,7.382,23.037-0.383
	C420.918,1093.562,421.555,1085.798,421.936,1077.271z"/>
<path fill="#D06204" d="M606.48,1736.187l-84.141-89.459l15.494-5.844l24.549,26.329l48.336-18.229l0.711-35.856l14.314-5.399
	l-3.266,122.425L606.48,1736.187z M610.553,1662.318l-39.07,14.735l37.152,39.853l0.674-0.255L610.553,1662.318z"/>
<path fill="#EE9BBA" d="M368.817,1502.189l69.188,41.766l-58.602,97.078l-67.801-40.928l6.697-11.095l54.857,33.115l18.418-30.511
	l-43.607-26.325l6.604-10.94l43.607,26.324l20.186-33.438l-56.244-33.952L368.817,1502.189z"/>
<path fill="#F7F80C" d="M537.801,1437.332l-15.848,3.855l-2.479-11.609l15.689-3.941c-1.215-10.917,1.062-22.595,7.102-33.652
	c15.877-29.064,48.018-37.967,78.662-21.228s40.523,48.592,24.646,77.658c-15.789,28.906-48.016,37.967-78.66,21.227
	C552.381,1461.704,542.49,1450.147,537.801,1437.332z M633.885,1442.029c11.736-21.483,3.691-43.926-20.637-57.214
	c-24.326-13.288-47.715-8.016-59.451,13.468c-4.572,8.373-6.314,16.444-5.385,24.13l18.85-4.471l2.549,11.854l-17.873,4.184
	c4.133,8.204,11.842,15.492,22.74,21.445C599.006,1468.713,622.15,1463.513,633.885,1442.029z"/>
<path fill="#329D51" d="M440.457,792.479l-120.922-17.615l8.051-13.85l101.742,14.795l0.363-0.623l-63.752-80.152l7.959-13.694
	l75.061,96.513L440.457,792.479z"/>
<path fill="#254EA0" d="M384.948,1285.086c-4.363-13.408-6.055-27.64-4.332-40.825c-7.729-2.168-13.605-2.735-19.707,1.087
	c-2.287,1.433-4.48,3.019-6.902,5.597l-5.158-8.237c1.695-3.398,4.936-6.701,8.75-9.09c6.863-4.299,13.674-4.954,26.135-2.353
	c3.881-11.775,11.16-21.855,22.295-28.83c17.543-10.987,37.387-9.823,47.801,6.804c8.121,12.967,5.061,25.715-3.453,40.604
	c10.096,3.234,18.475,7.117,23.92,15.812c8.791,14.035,4.133,30.332-10.818,39.696c-15.406,9.648-29.434,5.902-37.172-6.453
	c-7.643-12.203-4.066-23.788,5.629-39.844l-39.828-11.37c-0.982,9.961,0.459,20.739,4.207,31.134L384.948,1285.086z
	 M395.089,1234.136l0.592,0.266l43.799,12.284c6.037-10.365,8.129-18.896,1.729-29.116c-6.307-10.068-18.404-11.411-29.084-4.724
	C403.888,1218.005,398.382,1225.489,395.089,1234.136z M442.585,1262.156c-9.031,13.726-10.533,20.825-5.182,29.367
	c3.916,6.254,11.609,9.72,20.152,4.369c7.475-4.682,10.613-13.231,4.785-22.537C458.233,1266.797,450.81,1264.438,442.585,1262.156z
	"/>
<path fill="#F7F80C" d="M526.182,1571.963l-24.805,65.1l-6.82-6.459l7.354-19.051l-21.277-20.147l-18.473,8.521l-6.303-5.968
	l63.281-28.665L526.182,1571.963z M487.479,1588.186l17.199,16.287l11.131-28.833l-0.297-0.281L487.479,1588.186z"/>
<path fill="#254EA0" d="M637.93,943.038l-16.021,42.953l-60.27-22.481l15.701-42.092l6.889,2.569l-12.703,34.056l18.941,7.066
	l10.1-27.073l6.791,2.533l-10.1,27.073l20.76,7.743l13.025-34.917L637.93,943.038z"/>
<path fill="#D06204" d="M519.762,1245.193l-9.234,0.576l-0.229-6.729l9.152-0.641c0.408-6.218,2.842-12.513,7.314-18.087
	c11.758-14.653,30.592-16.428,46.041-4.032c15.449,12.396,17.799,31.168,6.041,45.821c-11.693,14.573-30.592,16.428-46.041,4.031
	C525.481,1260.255,521.106,1252.817,519.762,1245.193z M572.956,1257.373c8.689-10.831,6.43-24.165-5.836-34.005
	c-12.264-9.841-25.85-9.223-34.541,1.608c-3.387,4.221-5.162,8.556-5.408,12.939l10.973-0.621l0.244,6.873l-10.396,0.559
	c1.492,4.993,5.072,9.83,10.566,14.239C550.823,1268.806,564.266,1268.203,572.956,1257.373z"/>
<path fill="#EE9BBA" d="M612.022,1131.974l-57.604-38.559l7.506-5.124l48.473,32.43l0.338-0.23l-13.057-56.608l7.42-5.066
	l14.85,67.747L612.022,1131.974z"/>
<path fill="#329D51" d="M454.309,1411.647c-6.857,4.115-14.512,6.858-22.02,7.581c-0.217,4.548,0.217,7.869,3.105,10.757
	c1.082,1.083,2.236,2.094,3.971,3.105l-3.9,3.897c-2.094-0.505-4.33-1.877-6.137-3.682c-3.248-3.249-4.475-6.931-4.619-14.15
	c-7.004-0.649-13.502-3.394-18.771-8.664c-8.303-8.303-10.18-19.42-2.311-27.29c6.137-6.137,13.572-6.064,22.887-3.249
	c0.506-5.992,1.588-11.118,5.703-15.233c6.643-6.643,16.244-6.138,23.32,0.938c7.291,7.292,7.002,15.522,1.154,21.37
	c-5.775,5.775-12.635,5.271-22.742,1.949l-1.227,23.465c5.631-0.723,11.406-2.889,16.678-6.282L454.309,1411.647z M424.854,1412.514
	l0.07-0.361l1.229-25.773c-6.498-2.021-11.479-2.095-16.316,2.743c-4.766,4.765-3.971,11.624,1.082,16.678
	C414.817,1409.698,419.655,1411.792,424.854,1412.514z M434.311,1382.696c8.736,3.249,12.852,3.177,16.895-0.865
	c2.959-2.961,3.898-7.653-0.145-11.697c-3.539-3.537-8.664-4.187-13.068,0.218C434.889,1373.455,434.528,1377.859,434.311,1382.696z
	"/>
<path fill="#D06204" d="M576.695,644.264l54.736,43.806l-8.287,4.547l-15.99-12.91L581.3,693.89l2.477,20.323l-7.658,4.2
	l-7.982-69.455L576.695,644.264z M580.322,686.34l20.9-11.465l-24.197-19.541l-0.361,0.197L580.322,686.34z"/>
<path fill="#EE9BBA" d="M360.619,444.914l-42.707-17.451l24.486-59.923l41.85,17.1l-2.797,6.85l-33.861-13.837l-7.695,18.834
	l26.918,10.999l-2.76,6.753l-26.918-10.999l-8.434,20.641l34.717,14.187L360.619,444.914z"/>
<path fill="#F7F80C" d="M557.663,425.583l9.045-2.201l1.416,6.628l-8.957,2.25c0.693,6.231-0.605,12.898-4.055,19.21
	c-9.062,16.592-27.41,21.674-44.904,12.118s-23.133-27.739-14.07-44.332c9.014-16.501,27.41-21.674,44.904-12.117
	C549.338,411.67,554.985,418.268,557.663,425.583z M502.811,422.902c-6.699,12.264-2.107,25.075,11.781,32.661
	c13.887,7.586,27.238,4.576,33.938-7.688c2.609-4.779,3.605-9.387,3.074-13.774l-10.76,2.552l-1.455-6.767l10.203-2.388
	c-2.359-4.684-6.762-8.844-12.982-12.242C522.721,407.669,509.51,410.638,502.811,422.902z"/>
<path fill="#329D51" d="M344.756,32.507l69.031,10.056l-4.598,7.906l-58.08-8.445l-0.207,0.355l36.395,45.756l-4.545,7.817
	l-42.85-55.095L344.756,32.507z"/>
<path fill="#254EA0" d="M546.451,821.576c2.492,7.654,3.457,15.778,2.475,23.306c4.41,1.237,7.766,1.561,11.248-0.621
	c1.307-0.817,2.559-1.723,3.941-3.194l2.945,4.702c-0.969,1.939-2.818,3.825-4.996,5.188c-3.918,2.454-7.805,2.828-14.92,1.343
	c-2.215,6.723-6.369,12.477-12.727,16.459c-10.014,6.271-21.342,5.607-27.287-3.885c-4.635-7.402-2.889-14.68,1.971-23.18
	c-5.762-1.846-10.545-4.062-13.654-9.026c-5.018-8.012-2.359-17.315,6.176-22.661c8.795-5.508,16.803-3.369,21.219,3.684
	c4.363,6.967,2.322,13.58-3.213,22.746l22.738,6.49c0.561-5.687-0.264-11.839-2.402-17.773L546.451,821.576z M540.664,850.661
	l-0.338-0.151l-25.004-7.013c-3.447,5.917-4.641,10.787-0.986,16.621c3.6,5.748,10.506,6.515,16.602,2.697
	C535.641,859.87,538.783,855.598,540.664,850.661z M513.551,834.665c5.154-7.835,6.012-11.888,2.957-16.764
	c-2.236-3.57-6.627-5.549-11.504-2.494c-4.268,2.672-6.059,7.553-2.732,12.865C504.617,832.017,508.855,833.363,513.551,834.665z"/>
</svg>
