<?xml version="1.0" encoding="utf-8"?>
<!-- Generator: Adobe Illustrator 16.0.0, SVG Export Plug-In . SVG Version: 6.00 Build 0)  -->
<!DOCTYPE svg PUBLIC "-//W3C//DTD SVG 1.1//EN" "http://www.w3.org/Graphics/SVG/1.1/DTD/svg11.dtd">
<svg version="1.1" id="Layer_1" xmlns="http://www.w3.org/2000/svg" xmlns:xlink="http://www.w3.org/1999/xlink" x="0px" y="0px"
	 width="653.066px" height="2638.242px" viewBox="0 0 653.066 2638.242" enable-background="new 0 0 653.066 2638.242"
	 xml:space="preserve">
<rect x="0" fill="#F2F2F2" width="653.066" height="2638.242"/>
<path opacity="0.3" fill="#D06204" d="M247.154,2000.939l-54.735-43.807l8.287-4.547l15.987,12.91l25.855-14.184l-2.478-20.323
	l7.656-4.2l7.984,69.455L247.154,2000.939z M243.525,1958.863l-20.897,11.465l24.197,19.541l0.36-0.197L243.525,1958.863z"/>
<path opacity="0.3" fill="#EE9BBA" d="M76.81,2365.411l42.709,17.45l-24.485,59.924l-41.851-17.101l2.797-6.85l33.861,13.837
	l7.695-18.834l-26.918-10.999l2.76-6.753l26.918,10.999l8.434-20.642l-34.717-14.187L76.81,2365.411z"/>
<path opacity="0.3" fill="#F7F80C" d="M300.064,2250.816l-9.047,2.201l-1.414-6.628l8.955-2.25c-0.69-6.23,0.607-12.897,4.055-19.21
	c9.064-16.592,27.412-21.674,44.904-12.117c17.496,9.556,23.135,27.738,14.07,44.332c-9.015,16.5-27.41,21.674-44.904,12.116
	C308.388,2264.73,302.742,2258.133,300.064,2250.816z M354.915,2253.499c6.699-12.264,2.105-25.075-11.78-32.661
	c-13.887-7.586-27.238-4.576-33.938,7.688c-2.61,4.778-3.604,9.387-3.075,13.773l10.762-2.552l1.455,6.768l-10.203,2.388
	c2.358,4.684,6.76,8.844,12.981,12.241C335.003,2268.73,348.216,2265.763,354.915,2253.499z"/>
<path opacity="0.3" fill="#329D51" d="M577.774,2591.111l-69.029-10.057l4.597-7.905l58.08,8.444l0.209-0.354l-36.396-45.756
	l4.545-7.817l42.849,55.096L577.774,2591.111z"/>
<path opacity="0.3" fill="#254EA0" d="M163.552,1860.312c-2.49-7.654-3.455-15.778-2.473-23.307
	c-4.412-1.237-7.767-1.561-11.25,0.621c-1.306,0.817-2.558,1.723-3.939,3.194l-2.945-4.702c0.97-1.939,2.816-3.825,4.994-5.188
	c3.918-2.454,7.808-2.828,14.92-1.343c2.216-6.723,6.371-12.477,12.729-16.459c10.014-6.271,21.342-5.607,27.287,3.885
	c4.635,7.402,2.889,14.681-1.974,23.181c5.765,1.846,10.548,4.062,13.656,9.025c5.019,8.013,2.359,17.315-6.176,22.661
	c-8.795,5.508-16.803,3.369-21.221-3.684c-4.361-6.967-2.32-13.58,3.215-22.746l-22.738-6.49
	c-0.561,5.688,0.262,11.839,2.402,17.773L163.552,1860.312z M169.341,1831.227l0.338,0.151l25.002,7.013
	c3.447-5.917,4.644-10.787,0.988-16.621c-3.601-5.748-10.506-6.515-16.604-2.696C174.365,1822.018,171.22,1826.29,169.341,1831.227z
	 M196.455,1847.223c-5.154,7.835-6.013,11.889-2.957,16.765c2.235,3.569,6.627,5.549,11.504,2.494
	c4.266-2.673,6.059-7.554,2.731-12.865C205.388,1849.871,201.15,1848.524,196.455,1847.223z"/>
<path opacity="0.3" fill="#D06204" d="M70.796,1824.317l84.141,89.459l-15.494,5.844l-24.551-26.329l-48.334,18.229l-0.711,35.856
	l-14.316,5.399l3.267-122.426L70.796,1824.317z M66.724,1898.186l39.07-14.734l-37.152-39.854l-0.674,0.256L66.724,1898.186z"/>
<path opacity="0.3" fill="#EE9BBA" d="M343.39,2126.402l-69.188-41.767l58.604-97.078l67.801,40.929l-6.697,11.095l-54.856-33.115
	l-18.418,30.511l43.606,26.325l-6.604,10.94l-43.607-26.324l-20.186,33.438l56.244,33.952L343.39,2126.402z"/>
<path opacity="0.3" fill="#F7F80C" d="M115.269,2223.877l15.849-3.855l2.477,11.609l-15.688,3.941
	c1.214,10.916-1.062,22.595-7.104,33.651c-15.875,29.064-48.016,37.968-78.66,21.229c-30.646-16.739-40.522-48.593-24.647-77.658
	c15.791-28.906,48.018-37.967,78.661-21.228C100.689,2199.505,110.578,2211.062,115.269,2223.877z M19.183,2219.18
	c-11.733,21.483-3.688,43.926,20.639,57.215c24.326,13.287,47.716,8.016,59.451-13.469c4.572-8.373,6.314-16.443,5.386-24.13
	l-18.851,4.472l-2.549-11.854l17.871-4.185c-4.131-8.203-11.842-15.491-22.74-21.444
	C54.064,2192.496,30.917,2197.696,19.183,2219.18z"/>
<path opacity="0.3" fill="#329D51" d="M24.746,2527.104l120.922,17.614l-8.051,13.851l-101.742-14.795l-0.363,0.623l63.752,80.152
	l-7.959,13.693l-75.061-96.513L24.746,2527.104z"/>
<path opacity="0.3" fill="#254EA0" d="M262.965,2436.016c4.363,13.408,6.055,27.641,4.332,40.825
	c7.727,2.168,13.604,2.735,19.705-1.087c2.289-1.433,4.481-3.019,6.901-5.597l5.16,8.237c-1.694,3.397-4.936,6.701-8.75,9.09
	c-6.862,4.299-13.674,4.954-26.137,2.354c-3.879,11.774-11.158,21.854-22.295,28.83c-17.543,10.986-37.385,9.822-47.799-6.805
	c-8.121-12.967-5.062-25.715,3.453-40.604c-10.097-3.234-18.476-7.117-23.923-15.812c-8.788-14.035-4.131-30.332,10.82-39.695
	c15.406-9.648,29.435-5.902,37.172,6.452c7.644,12.203,4.066,23.788-5.631,39.845l39.83,11.369
	c0.982-9.961-0.459-20.738-4.207-31.134L262.965,2436.016z M252.824,2486.966l-0.593-0.266l-43.799-12.284
	c-6.037,10.365-8.129,18.896-1.729,29.116c6.307,10.067,18.403,11.411,29.082,4.724
	C244.023,2503.097,249.531,2495.612,252.824,2486.966z M205.328,2458.945c9.03-13.727,10.53-20.825,5.182-29.367
	c-3.918-6.254-11.609-9.72-20.152-4.369c-7.475,4.682-10.612,13.231-4.785,22.537
	C189.68,2454.305,197.104,2456.664,205.328,2458.945z"/>
<path opacity="0.3" fill="#F7F80C" d="M220.549,1753.864l24.803-65.101l6.82,6.459l-7.353,19.052l21.277,20.146l18.473-8.521
	l6.304,5.968l-63.281,28.665L220.549,1753.864z M259.252,1737.642l-17.199-16.286l-11.133,28.832l0.297,0.281L259.252,1737.642z"/>
<path opacity="0.3" fill="#254EA0" d="M252.727,2601.778l16.021-42.953l60.268,22.481l-15.701,42.092l-6.887-2.569l12.703-34.056
	l-18.941-7.066l-10.1,27.073l-6.791-2.533l10.098-27.073l-20.758-7.742l-13.024,34.917L252.727,2601.778z"/>
<path opacity="0.3" fill="#D06204" d="M131.857,2084.436l9.234-0.575l0.229,6.729l-9.153,0.642
	c-0.406,6.218-2.84,12.513-7.312,18.087c-11.758,14.653-30.592,16.428-46.041,4.032c-15.451-12.396-17.799-31.168-6.041-45.821
	c11.691-14.573,30.59-16.429,46.041-4.031C126.138,2069.374,130.511,2076.812,131.857,2084.436z M78.664,2072.256
	c-8.691,10.831-6.431,24.165,5.836,34.005c12.264,9.841,25.85,9.224,34.539-1.607c3.387-4.222,5.164-8.556,5.407-12.939
	l-10.971,0.621l-0.246-6.873l10.398-0.559c-1.492-4.993-5.072-9.83-10.566-14.239C100.796,2060.823,87.353,2061.426,78.664,2072.256
	z"/>
<path opacity="0.3" fill="#EE9BBA" d="M227.888,2281.32l57.604,38.559l-7.507,5.124l-48.473-32.43l-0.338,0.229l13.057,56.608
	l-7.42,5.065l-14.852-67.746L227.888,2281.32z"/>
<path opacity="0.3" fill="#329D51" d="M209.65,2148.632c6.859-4.114,14.513-6.857,22.021-7.581
	c0.217-4.548-0.217-7.869-3.105-10.757c-1.082-1.083-2.237-2.094-3.971-3.104l3.898-3.897c2.094,0.505,4.332,1.877,6.137,3.682
	c3.25,3.249,4.477,6.931,4.621,14.15c7.004,0.648,13.5,3.394,18.771,8.664c8.304,8.303,10.181,19.42,2.312,27.29
	c-6.138,6.137-13.574,6.063-22.888,3.249c-0.506,5.991-1.588,11.118-5.702,15.232c-6.644,6.644-16.244,6.138-23.32-0.938
	c-7.293-7.292-7.002-15.522-1.154-21.37c5.775-5.775,12.635-5.271,22.742-1.949l1.227-23.465
	c-5.633,0.723-11.407,2.889-16.678,6.281L209.65,2148.632z M239.107,2147.766l-0.071,0.361l-1.228,25.773
	c6.498,2.021,11.479,2.095,16.316-2.743c4.766-4.765,3.971-11.624-1.084-16.678C249.142,2150.581,244.306,2148.487,239.107,2147.766
	z M229.65,2177.583c-8.735-3.249-12.852-3.177-16.895,0.865c-2.961,2.961-3.898,7.653,0.145,11.696
	c3.537,3.537,8.664,4.188,13.068-0.218C229.072,2186.824,229.433,2182.42,229.65,2177.583z"/>
<path opacity="0.3" fill="#F7F80C" d="M399.06,1956.78l43.727-114.763l12.023,11.386l-12.963,33.584l37.51,35.519l32.566-15.021
	l11.108,10.52l-111.557,50.532L399.06,1956.78z M467.287,1928.182l-30.319-28.712l-19.623,50.828l0.522,0.495L467.287,1928.182z"/>
<path opacity="0.3" fill="#254EA0" d="M331.37,2510.179l28.246-75.721l106.244,39.632l-27.68,74.202l-12.144-4.529l22.396-60.036
	l-33.393-12.455l-17.804,47.726l-11.973-4.466l17.803-47.727l-36.596-13.65l-22.961,61.555L331.37,2510.179z"/>
<path opacity="0.3" fill="#D06204" d="M529.006,2081.385l16.276-1.017l0.404,11.862l-16.137,1.131
	c-0.72,10.961-5.009,22.059-12.894,31.886c-20.727,25.831-53.93,28.96-81.164,7.106c-27.235-21.853-31.377-54.943-10.649-80.775
	c20.612-25.69,53.928-28.961,81.164-7.106C518.924,2054.834,526.635,2067.945,529.006,2081.385z M435.232,2059.914
	c-15.32,19.093-11.334,42.6,10.287,59.946c21.619,17.347,45.57,16.257,60.891-2.836c5.97-7.441,9.101-15.082,9.533-22.812
	l-19.342,1.097l-0.432-12.116l18.327-0.985c-2.629-8.802-8.94-17.328-18.627-25.102
	C474.25,2039.759,450.551,2040.821,435.232,2059.914z"/>
<path opacity="0.3" fill="#EE9BBA" d="M421.511,2281.32l101.547,67.975l-13.23,9.032l-85.45-57.169l-0.597,0.406l23.019,99.794
	l-13.082,8.931l-26.179-119.43L421.511,2281.32z"/>
<path opacity="0.3" fill="#329D51" d="M543.12,2206.441c12.091-7.254,25.582-12.091,38.818-13.363
	c0.383-8.019-0.381-13.872-5.473-18.963c-1.908-1.909-3.945-3.691-7-5.475l6.873-6.872c3.69,0.892,7.635,3.31,10.817,6.491
	c5.728,5.727,7.892,12.218,8.146,24.945c12.346,1.145,23.801,5.98,33.092,15.271c14.637,14.637,17.945,34.236,4.072,48.109
	c-10.818,10.818-23.929,10.69-40.347,5.728c-0.891,10.563-2.799,19.601-10.055,26.854c-11.709,11.71-28.637,10.818-41.109-1.654
	c-12.854-12.854-12.346-27.364-2.034-37.673c10.182-10.183,22.271-9.291,40.092-3.438l2.162-41.364
	c-9.929,1.273-20.109,5.093-29.4,11.073L543.12,2206.441z M595.048,2204.915l-0.127,0.637l-2.164,45.438
	c11.455,3.562,20.235,3.69,28.764-4.836c8.4-8.4,7-20.491-1.908-29.401C612.74,2209.879,604.212,2206.188,595.048,2204.915z
	 M578.375,2257.479c-15.398-5.728-22.654-5.601-29.781,1.526c-5.219,5.219-6.873,13.491,0.254,20.619
	c6.238,6.235,15.272,7.382,23.037-0.384C577.357,2273.771,577.993,2266.007,578.375,2257.479z"/>
<path opacity="0.3" fill="#D06204" d="M563.182,2385.418l54.736,43.806l-8.287,4.548l-15.99-12.91l-25.854,14.184l2.478,20.323
	l-7.658,4.2l-7.982-69.455L563.182,2385.418z M566.809,2427.494l20.9-11.465l-24.197-19.541l-0.361,0.196L566.809,2427.494z"/>
<path opacity="0.3" fill="#EE9BBA" d="M604.345,2016.367l-42.707-17.451l24.485-59.923l41.851,17.1l-2.797,6.851l-33.861-13.838
	l-7.695,18.834l26.918,10.999l-2.76,6.753l-26.918-10.998l-8.434,20.641l34.717,14.187L604.345,2016.367z"/>
<path opacity="0.3" fill="#F7F80C" d="M426.003,1717.736l9.045-2.201l1.416,6.628l-8.957,2.25c0.692,6.23-0.605,12.897-4.056,19.21
	c-9.062,16.592-27.41,21.674-44.903,12.118c-17.494-9.556-23.134-27.739-14.07-44.332c9.014-16.501,27.41-21.674,44.904-12.117
	C417.679,1703.823,423.324,1710.421,426.003,1717.736z M371.151,1715.055c-6.699,12.265-2.106,25.075,11.781,32.661
	c13.887,7.586,27.238,4.576,33.938-7.688c2.609-4.779,3.605-9.388,3.074-13.774l-10.76,2.552l-1.455-6.767l10.203-2.388
	c-2.359-4.685-6.762-8.845-12.982-12.242C391.062,1699.822,377.851,1702.791,371.151,1715.055z"/>
<path opacity="0.3" fill="#329D51" d="M510.963,1786.488l69.03,10.056l-4.598,7.906l-58.08-8.445l-0.207,0.355l36.396,45.756
	l-4.545,7.817l-42.851-55.096L510.963,1786.488z"/>
<path opacity="0.3" fill="#254EA0" d="M347.829,1856.704c2.492,7.654,3.457,15.778,2.476,23.306
	c4.41,1.237,7.766,1.562,11.248-0.621c1.307-0.816,2.559-1.723,3.94-3.193l2.945,4.702c-0.969,1.938-2.818,3.824-4.996,5.188
	c-3.918,2.454-7.805,2.828-14.92,1.343c-2.215,6.724-6.369,12.478-12.727,16.459c-10.015,6.271-21.343,5.607-27.287-3.885
	c-4.635-7.402-2.889-14.68,1.971-23.18c-5.762-1.846-10.545-4.062-13.653-9.026c-5.019-8.012-2.359-17.314,6.176-22.661
	c8.795-5.508,16.803-3.369,21.219,3.685c4.363,6.967,2.322,13.579-3.213,22.745l22.737,6.49c0.562-5.687-0.264-11.839-2.401-17.772
	L347.829,1856.704z M342.041,1885.789l-0.338-0.151l-25.004-7.013c-3.446,5.917-4.641,10.787-0.985,16.621
	c3.6,5.748,10.506,6.515,16.602,2.697C337.019,1894.998,340.161,1890.726,342.041,1885.789z M314.929,1869.793
	c5.153-7.835,6.012-11.888,2.957-16.764c-2.236-3.57-6.627-5.549-11.504-2.494c-4.269,2.672-6.06,7.553-2.732,12.865
	C305.996,1867.145,310.234,1868.491,314.929,1869.793z"/>
<path opacity="0.3" fill="#F7F80C" d="M142.943,1620.454l-43.727,114.763l-12.023-11.386l12.963-33.584l-37.51-35.519
	l-32.565,15.021l-11.109-10.521l111.557-50.531L142.943,1620.454z M74.715,1649.053l30.32,28.712l19.623-50.827l-0.523-0.495
	L74.715,1649.053z"/>
<path opacity="0.3" fill="#254EA0" d="M147.703,1019.674l-28.246,75.721l-106.244-39.632l27.68-74.202l12.144,4.529l-22.396,60.036
	l33.394,12.456l17.803-47.726l11.973,4.466l-17.803,47.726l36.596,13.651l22.961-61.556L147.703,1019.674z"/>
<path opacity="0.3" fill="#D06204" d="M235.617,1446.155l-16.277,1.017l-0.404-11.863l16.137-1.13
	c0.72-10.961,5.009-22.059,12.894-31.886c20.727-25.831,53.93-28.96,81.164-7.107c27.235,21.854,31.377,54.944,10.649,80.776
	c-20.613,25.69-53.928,28.96-81.163,7.106C245.699,1472.706,237.988,1459.595,235.617,1446.155z M329.39,1467.626
	c15.32-19.093,11.334-42.599-10.287-59.946c-21.619-17.347-45.569-16.257-60.891,2.836c-5.969,7.441-9.101,15.082-9.533,22.812
	l19.342-1.096l0.433,12.115l-18.328,0.985c2.629,8.802,8.94,17.328,18.627,25.101
	C290.373,1487.781,314.072,1486.719,329.39,1467.626z"/>
<path opacity="0.3" fill="#EE9BBA" d="M293.228,1224.363l-101.547-67.976l13.23-9.031l85.45,57.169l0.597-0.406l-23.019-99.794
	l13.082-8.931l26.178,119.43L293.228,1224.363z"/>
<path opacity="0.3" fill="#329D51" d="M151.363,1315.357c-12.09,7.255-25.582,12.091-38.817,13.363
	c-0.383,8.019,0.381,13.872,5.473,18.963c1.908,1.909,3.945,3.691,7,5.475l-6.873,6.872c-3.69-0.892-7.635-3.31-10.817-6.491
	c-5.728-5.727-7.892-12.218-8.146-24.945c-12.346-1.145-23.801-5.98-33.092-15.271c-14.637-14.637-17.945-34.236-4.072-48.109
	c10.818-10.817,23.928-10.69,40.346-5.728c0.892-10.563,2.8-19.601,10.056-26.854c11.709-11.71,28.637-10.818,41.108,1.654
	c12.855,12.854,12.347,27.364,2.035,37.673c-10.182,10.183-22.271,9.291-40.092,3.438l-2.162,41.363
	c9.928-1.272,20.109-5.092,29.4-11.072L151.363,1315.357z M99.435,1316.885l0.127-0.637l2.164-45.438
	c-11.455-3.562-20.235-3.69-28.764,4.837c-8.4,8.399-7,20.49,1.908,29.4C81.744,1311.921,90.271,1315.612,99.435,1316.885z
	 M116.109,1264.32c15.398,5.728,22.654,5.601,29.781-1.526c5.219-5.219,6.873-13.491-0.254-20.619
	c-6.238-6.235-15.273-7.382-23.037,0.383C117.126,1248.029,116.49,1255.793,116.109,1264.32z"/>
<path opacity="0.3" fill="#D06204" d="M70.796,0l84.141,89.459l-15.494,5.844l-24.551-26.329L66.558,87.203l-0.711,35.856
	l-14.316,5.399L54.796,6.034L70.796,0z M66.724,73.868l39.07-14.735L68.642,19.28l-0.674,0.255L66.724,73.868z"/>
<path opacity="0.3" fill="#EE9BBA" d="M354.834,312.545l-69.189-41.766l58.604-97.078l67.802,40.928l-6.697,11.095l-54.857-33.115
	l-18.418,30.511l43.607,26.325l-6.604,10.94l-43.606-26.324L305.288,267.5l56.243,33.952L354.834,312.545z"/>
<path opacity="0.3" fill="#F7F80C" d="M115.269,399.56l15.849-3.854l2.477,11.609l-15.688,3.94
	c1.214,10.917-1.062,22.595-7.104,33.652c-15.875,29.063-48.016,37.967-78.66,21.228C1.496,449.396-8.381,417.543,7.494,388.477
	c15.791-28.906,48.018-37.967,78.661-21.227C100.689,375.188,110.578,386.744,115.269,399.56z M19.183,394.862
	c-11.733,21.483-3.688,43.926,20.639,57.214c24.326,13.288,47.716,8.016,59.451-13.468c4.572-8.373,6.314-16.444,5.386-24.131
	l-18.851,4.472l-2.549-11.854l17.871-4.184c-4.13-8.203-11.841-15.491-22.74-21.444C54.064,368.179,30.917,373.379,19.183,394.862z"
	/>
<path opacity="0.3" fill="#329D51" d="M62.119,681.339l120.922,17.615l-8.051,13.85L73.248,698.009l-0.363,0.623l63.752,80.152
	l-7.959,13.693l-75.061-96.513L62.119,681.339z"/>
<path opacity="0.3" fill="#254EA0" d="M314.982,508.354c4.363,13.408,6.055,27.641,4.332,40.825
	c7.727,2.168,13.604,2.735,19.705-1.087c2.289-1.433,4.481-3.019,6.902-5.597l5.159,8.237c-1.694,3.397-4.936,6.7-8.75,9.09
	c-6.862,4.299-13.674,4.954-26.137,2.353c-3.879,11.775-11.157,21.855-22.295,28.83c-17.543,10.987-37.385,9.823-47.799-6.804
	c-8.121-12.967-5.062-25.715,3.453-40.604c-10.096-3.233-18.475-7.116-23.922-15.812c-8.789-14.035-4.131-30.332,10.82-39.696
	c15.405-9.647,29.434-5.901,37.172,6.453c7.643,12.203,4.065,23.788-5.631,39.844l39.829,11.37
	c0.982-9.961-0.459-20.738-4.207-31.134L314.982,508.354z M304.841,559.304l-0.592-0.266l-43.799-12.284
	c-6.037,10.365-8.13,18.896-1.729,29.116c6.307,10.068,18.404,11.411,29.082,4.724C296.041,575.435,301.548,567.95,304.841,559.304z
	 M257.345,531.283c9.031-13.727,10.531-20.825,5.182-29.367c-3.918-6.254-11.608-9.72-20.151-4.369
	c-7.476,4.683-10.613,13.231-4.785,22.537C241.697,526.643,249.121,529.002,257.345,531.283z"/>
<path opacity="0.3" fill="#F7F80C" d="M225.019,155.607l24.803-65.1l6.82,6.459l-7.352,19.051l21.276,20.147l18.474-8.521
	l6.303,5.968l-63.281,28.665L225.019,155.607z M263.722,139.385l-17.199-16.287l-11.133,28.833l0.297,0.281L263.722,139.385z"/>
<path opacity="0.3" fill="#254EA0" d="M211.728,732.043l16.021-42.953l60.268,22.481l-15.701,42.092l-6.887-2.569l12.703-34.056
	l-18.941-7.066l-10.1,27.073l-6.791-2.533l10.098-27.072l-20.758-7.743l-13.024,34.917L211.728,732.043z"/>
<path opacity="0.3" fill="#D06204" d="M131.857,260.118l9.234-0.576l0.229,6.729l-9.153,0.641
	c-0.406,6.218-2.84,12.513-7.312,18.087c-11.758,14.653-30.592,16.428-46.041,4.032c-15.451-12.396-17.799-31.168-6.041-45.821
	c11.691-14.573,30.59-16.428,46.041-4.031C126.138,245.057,130.511,252.494,131.857,260.118z M78.664,247.938
	c-8.691,10.831-6.431,24.165,5.836,34.005c12.264,9.841,25.85,9.223,34.539-1.608c3.387-4.221,5.164-8.556,5.407-12.939
	l-10.971,0.621l-0.246-6.873l10.398-0.559c-1.492-4.993-5.072-9.83-10.566-14.239C100.796,236.506,87.353,237.108,78.664,247.938z"
	/>
<path opacity="0.3" fill="#EE9BBA" d="M139.177,485.932l57.604,38.56l-7.506,5.124l-48.473-32.43l-0.338,0.229l13.057,56.608
	l-7.42,5.065l-14.852-67.747L139.177,485.932z"/>
<path opacity="0.3" fill="#329D51" d="M209.65,324.314c6.859-4.115,14.513-6.858,22.021-7.581c0.217-4.548-0.217-7.869-3.105-10.757
	c-1.082-1.083-2.237-2.094-3.971-3.105l3.898-3.897c2.094,0.505,4.332,1.877,6.137,3.682c3.25,3.249,4.477,6.931,4.621,14.15
	c7.004,0.649,13.5,3.394,18.771,8.664c8.304,8.303,10.181,19.42,2.312,27.29c-6.138,6.137-13.574,6.064-22.888,3.249
	c-0.506,5.992-1.588,11.118-5.702,15.233c-6.644,6.643-16.244,6.138-23.32-0.938c-7.293-7.292-7.002-15.522-1.154-21.37
	c5.775-5.775,12.635-5.271,22.742-1.949l1.227-23.465c-5.633,0.723-11.407,2.889-16.678,6.282L209.65,324.314z M239.107,323.448
	l-0.071,0.361l-1.228,25.773c6.498,2.021,11.479,2.095,16.316-2.743c4.766-4.765,3.971-11.624-1.084-16.678
	C249.142,326.264,244.306,324.17,239.107,323.448z M229.65,353.266c-8.735-3.249-12.852-3.177-16.895,0.865
	c-2.961,2.961-3.898,7.653,0.145,11.697c3.537,3.537,8.664,4.187,13.068-0.218C229.072,362.507,229.433,358.103,229.65,353.266z"/>
<path opacity="0.3" fill="#D06204" d="M244.296,1055.71l-54.736-43.806l8.287-4.547l15.988,12.909l25.854-14.184l-2.477-20.323
	l7.656-4.2l7.983,69.455L244.296,1055.71z M240.667,1013.634l-20.898,11.465l24.197,19.541l0.361-0.196L240.667,1013.634z"/>
<path opacity="0.3" fill="#EE9BBA" d="M138.162,1420.182l42.709,17.451l-24.486,59.923l-41.85-17.1l2.797-6.85l33.86,13.837
	l7.695-18.834l-26.918-10.999l2.76-6.753l26.918,10.999l8.435-20.642l-34.717-14.187L138.162,1420.182z"/>
<path opacity="0.3" fill="#F7F80C" d="M193.537,1301.986l-9.047,2.201l-1.414-6.629l8.954-2.25c-0.69-6.23,0.607-12.897,4.056-19.21
	c9.063-16.592,27.412-21.674,44.903-12.118c17.496,9.557,23.136,27.739,14.07,44.332c-9.014,16.502-27.41,21.675-44.904,12.117
	C201.861,1315.899,196.214,1309.302,193.537,1301.986z M248.388,1304.668c6.699-12.264,2.105-25.075-11.781-32.661
	c-13.886-7.586-27.237-4.576-33.938,7.688c-2.611,4.778-3.605,9.387-3.076,13.773l10.762-2.552l1.455,6.767l-10.203,2.389
	c2.359,4.684,6.761,8.844,12.982,12.241C228.476,1319.9,241.689,1316.932,248.388,1304.668z"/>
<path opacity="0.3" fill="#329D51" d="M256.151,1603.334l-69.028-10.056l4.596-7.906l58.08,8.444l0.209-0.354l-36.396-45.756
	l4.546-7.817l42.848,55.096L256.151,1603.334z"/>
<path opacity="0.3" fill="#254EA0" d="M160.695,915.082c-2.489-7.654-3.454-15.778-2.473-23.306
	c-4.412-1.237-7.766-1.562-11.25,0.62c-1.305,0.817-2.557,1.724-3.938,3.194l-2.945-4.702c0.969-1.938,2.815-3.825,4.994-5.188
	c3.918-2.454,7.807-2.828,14.92-1.344c2.215-6.723,6.371-12.477,12.729-16.459c10.015-6.271,21.342-5.606,27.287,3.886
	c4.635,7.401,2.89,14.68-1.973,23.18c5.764,1.846,10.547,4.062,13.656,9.026c5.018,8.012,2.358,17.314-6.177,22.661
	c-8.795,5.508-16.803,3.368-21.221-3.685c-4.361-6.967-2.32-13.58,3.215-22.746l-22.738-6.49c-0.561,5.688,0.263,11.84,2.402,17.773
	L160.695,915.082z M166.484,885.997l0.338,0.151l25.003,7.013c3.446-5.917,4.643-10.787,0.987-16.621
	c-3.6-5.748-10.506-6.515-16.604-2.697C171.507,876.788,168.363,881.061,166.484,885.997z M193.597,901.993
	c-5.154,7.835-6.012,11.888-2.957,16.764c2.236,3.57,6.627,5.549,11.504,2.494c4.267-2.672,6.06-7.553,2.732-12.865
	C202.531,904.642,198.292,903.295,193.597,901.993z"/>
<path opacity="0.3" fill="#F7F80C" d="M470.279,151.484l43.728-114.763l12.022,11.386l-12.963,33.584l37.51,35.519l32.566-15.021
	l11.108,10.52l-111.557,50.532L470.279,151.484z M538.508,122.886l-30.32-28.712l-19.623,50.828l0.523,0.495L538.508,122.886z"/>
<path opacity="0.3" fill="#254EA0" d="M295.342,915.591l28.246-75.721l106.244,39.632l-27.681,74.202l-12.143-4.529l22.396-60.036
	l-33.393-12.456l-17.803,47.727l-11.974-4.466l17.803-47.727l-36.596-13.65l-22.961,61.555L295.342,915.591z"/>
<path opacity="0.3" fill="#D06204" d="M598.569,281.415l16.277-1.017l0.403,11.863l-16.137,1.13
	c-0.719,10.961-5.008,22.059-12.893,31.886c-20.728,25.831-53.931,28.96-81.164,7.107c-27.236-21.853-31.377-54.944-10.65-80.776
	c20.613-25.69,53.928-28.96,81.164-7.106C588.487,254.864,596.198,267.976,598.569,281.415z M504.795,259.944
	c-15.32,19.093-11.334,42.599,10.287,59.946c21.618,17.347,45.569,16.257,60.891-2.836c5.969-7.441,9.1-15.082,9.533-22.812
	l-19.342,1.096l-0.433-12.116l18.328-0.985c-2.629-8.802-8.941-17.328-18.627-25.102
	C543.813,239.789,520.114,240.852,504.795,259.944z"/>
<path opacity="0.3" fill="#EE9BBA" d="M457.973,503.207l101.547,67.975l-13.23,9.032l-85.45-57.169l-0.597,0.406l23.019,99.794
	l-13.082,8.931L444,512.746L457.973,503.207z"/>
<path opacity="0.3" fill="#329D51" d="M386.682,1026.233c12.09-7.255,25.582-12.092,38.818-13.364
	c0.383-8.019-0.382-13.872-5.474-18.963c-1.908-1.909-3.945-3.691-7-5.475l6.873-6.872c3.691,0.892,7.635,3.31,10.818,6.491
	c5.727,5.728,7.891,12.219,8.145,24.945c12.347,1.145,23.801,5.98,33.092,15.271c14.638,14.638,17.945,34.236,4.072,48.109
	c-10.817,10.818-23.928,10.691-40.346,5.729c-0.892,10.562-2.799,19.6-10.056,26.854c-11.709,11.71-28.637,10.819-41.108-1.654
	c-12.855-12.854-12.346-27.363-2.035-37.673c10.182-10.182,22.271-9.291,40.092-3.437l2.162-41.364
	c-9.928,1.272-20.108,5.092-29.399,11.073L386.682,1026.233z M438.61,1024.706l-0.127,0.637l-2.164,45.438
	c11.455,3.562,20.236,3.69,28.764-4.836c8.4-8.4,7-20.491-1.907-29.401C456.301,1029.67,447.774,1025.979,438.61,1024.706z
	 M421.936,1077.271c-15.398-5.729-22.654-5.602-29.781,1.525c-5.219,5.219-6.873,13.491,0.254,20.619
	c6.238,6.236,15.273,7.382,23.037-0.383C420.918,1093.562,421.555,1085.798,421.936,1077.271z"/>
<path opacity="0.3" fill="#D06204" d="M606.48,1736.188l-84.141-89.459l15.493-5.845l24.55,26.329l48.336-18.229l0.711-35.856
	l14.313-5.399l-3.266,122.426L606.48,1736.188z M610.553,1662.318l-39.07,14.734l37.152,39.854l0.674-0.255L610.553,1662.318z"/>
<path opacity="0.3" fill="#EE9BBA" d="M368.817,1502.189l69.188,41.766l-58.603,97.078l-67.801-40.928l6.697-11.096l54.856,33.115
	l18.418-30.511l-43.606-26.325l6.604-10.939l43.607,26.323l20.186-33.438l-56.244-33.952L368.817,1502.189z"/>
<path opacity="0.3" fill="#F7F80C" d="M537.801,1437.332l-15.849,3.855l-2.479-11.609l15.688-3.941
	c-1.215-10.917,1.062-22.595,7.103-33.651c15.877-29.064,48.018-37.968,78.662-21.229c30.644,16.739,40.522,48.592,24.646,77.658
	c-15.789,28.906-48.016,37.967-78.66,21.227C552.381,1461.704,542.49,1450.146,537.801,1437.332z M633.885,1442.029
	c11.735-21.483,3.69-43.926-20.638-57.214c-24.325-13.288-47.715-8.017-59.45,13.468c-4.572,8.373-6.314,16.443-5.386,24.13
	l18.851-4.471l2.549,11.854l-17.873,4.185c4.133,8.203,11.842,15.491,22.74,21.444
	C599.006,1468.713,622.15,1463.513,633.885,1442.029z"/>
<path opacity="0.3" fill="#329D51" d="M440.456,792.479l-120.922-17.614l8.052-13.851l101.741,14.795l0.363-0.623l-63.752-80.151
	l7.959-13.694l75.062,96.514L440.456,792.479z"/>
<path opacity="0.3" fill="#254EA0" d="M384.948,1285.086c-4.362-13.408-6.055-27.64-4.332-40.825
	c-7.729-2.168-13.604-2.734-19.707,1.087c-2.287,1.434-4.479,3.02-6.901,5.598l-5.158-8.237c1.695-3.397,4.936-6.701,8.75-9.09
	c6.863-4.299,13.674-4.954,26.135-2.353c3.881-11.775,11.16-21.855,22.295-28.83c17.543-10.987,37.388-9.823,47.801,6.804
	c8.121,12.967,5.062,25.715-3.452,40.604c10.096,3.234,18.475,7.117,23.92,15.812c8.791,14.035,4.133,30.332-10.818,39.696
	c-15.406,9.647-29.434,5.901-37.172-6.453c-7.644-12.203-4.066-23.788,5.629-39.844l-39.828-11.37
	c-0.981,9.961,0.459,20.738,4.207,31.134L384.948,1285.086z M395.089,1234.136l0.592,0.267l43.799,12.283
	c6.037-10.364,8.129-18.896,1.729-29.115c-6.308-10.068-18.404-11.411-29.084-4.725
	C403.888,1218.005,398.382,1225.489,395.089,1234.136z M442.585,1262.156c-9.031,13.726-10.533,20.824-5.183,29.367
	c3.916,6.254,11.609,9.72,20.152,4.368c7.475-4.682,10.613-13.23,4.785-22.536C458.233,1266.797,450.81,1264.438,442.585,1262.156z"
	/>
<path opacity="0.3" fill="#F7F80C" d="M526.182,1571.963l-24.805,65.1l-6.82-6.459l7.354-19.051l-21.276-20.146l-18.474,8.521
	l-6.303-5.968l63.281-28.665L526.182,1571.963z M487.479,1588.186l17.199,16.287l11.131-28.833l-0.297-0.28L487.479,1588.186z"/>
<path opacity="0.3" fill="#254EA0" d="M637.93,943.038l-16.021,42.953l-60.27-22.481l15.701-42.092l6.889,2.569l-12.703,34.056
	l18.941,7.066l10.1-27.073l6.791,2.533l-10.1,27.072l20.76,7.743l13.025-34.917L637.93,943.038z"/>
<path opacity="0.3" fill="#D06204" d="M519.762,1245.193l-9.234,0.576l-0.229-6.729l9.151-0.641
	c0.408-6.219,2.843-12.514,7.314-18.087c11.758-14.653,30.592-16.429,46.041-4.032c15.449,12.396,17.799,31.168,6.041,45.821
	c-11.693,14.572-30.592,16.428-46.041,4.03C525.481,1260.255,521.106,1252.817,519.762,1245.193z M572.955,1257.373
	c8.689-10.831,6.431-24.165-5.836-34.005c-12.264-9.841-25.85-9.224-34.541,1.608c-3.387,4.221-5.162,8.556-5.407,12.938
	l10.973-0.621l0.244,6.873l-10.396,0.56c1.492,4.992,5.072,9.829,10.566,14.238C550.823,1268.806,564.266,1268.203,572.955,1257.373
	z"/>
<path opacity="0.3" fill="#EE9BBA" d="M612.022,1131.974l-57.604-38.559l7.506-5.124l48.473,32.43l0.338-0.229l-13.057-56.608
	l7.42-5.065l14.85,67.747L612.022,1131.974z"/>
<path opacity="0.3" fill="#329D51" d="M454.309,1411.646c-6.857,4.115-14.512,6.858-22.021,7.582
	c-0.217,4.548,0.218,7.868,3.105,10.757c1.082,1.083,2.236,2.094,3.971,3.104l-3.899,3.897c-2.095-0.505-4.33-1.877-6.138-3.683
	c-3.248-3.249-4.475-6.931-4.618-14.149c-7.005-0.649-13.502-3.395-18.771-8.664c-8.303-8.304-10.18-19.42-2.311-27.29
	c6.137-6.137,13.571-6.064,22.887-3.249c0.506-5.992,1.588-11.118,5.703-15.233c6.643-6.643,16.244-6.138,23.319,0.938
	c7.291,7.292,7.003,15.521,1.154,21.37c-5.774,5.774-12.635,5.271-22.742,1.948l-1.227,23.465
	c5.631-0.723,11.406-2.889,16.678-6.281L454.309,1411.646z M424.854,1412.514l0.07-0.36l1.229-25.773
	c-6.498-2.021-11.479-2.095-16.315,2.743c-4.767,4.766-3.972,11.624,1.082,16.678
	C414.817,1409.698,419.655,1411.792,424.854,1412.514z M434.311,1382.696c8.736,3.249,12.852,3.177,16.895-0.865
	c2.959-2.961,3.898-7.653-0.145-11.697c-3.539-3.537-8.664-4.187-13.068,0.218C434.889,1373.455,434.528,1377.859,434.311,1382.696z
	"/>
<path opacity="0.3" fill="#D06204" d="M576.695,644.264l54.736,43.807l-8.287,4.547l-15.99-12.91L581.3,693.89l2.477,20.323
	l-7.658,4.2l-7.981-69.455L576.695,644.264z M580.322,686.34l20.9-11.465l-24.197-19.541l-0.361,0.197L580.322,686.34z"/>
<path opacity="0.3" fill="#EE9BBA" d="M360.618,444.914l-42.707-17.451l24.486-59.923l41.85,17.1l-2.797,6.85l-33.86-13.837
	l-7.695,18.834l26.918,11l-2.76,6.753l-26.918-10.999l-8.435,20.641l34.718,14.188L360.618,444.914z"/>
<path opacity="0.3" fill="#F7F80C" d="M557.662,425.583l9.045-2.201l1.416,6.628l-8.956,2.25c0.692,6.231-0.605,12.898-4.056,19.21
	c-9.062,16.593-27.41,21.674-44.903,12.118c-17.494-9.556-23.134-27.739-14.07-44.332c9.014-16.501,27.41-21.674,44.904-12.117
	C549.338,411.67,554.985,418.268,557.662,425.583z M502.811,422.902c-6.699,12.264-2.107,25.074,11.781,32.661
	c13.887,7.586,27.237,4.575,33.938-7.688c2.609-4.779,3.605-9.387,3.074-13.774l-10.76,2.553l-1.455-6.768l10.203-2.388
	c-2.359-4.684-6.763-8.844-12.982-12.242C522.721,407.669,509.51,410.638,502.811,422.902z"/>
<path opacity="0.3" fill="#329D51" d="M344.756,32.507l69.03,10.056l-4.598,7.906l-58.08-8.445l-0.207,0.355l36.396,45.756
	l-4.545,7.817l-42.851-55.095L344.756,32.507z"/>
<path opacity="0.3" fill="#254EA0" d="M546.45,821.576c2.492,7.654,3.457,15.777,2.476,23.306c4.41,1.237,7.766,1.562,11.248-0.621
	c1.307-0.816,2.559-1.723,3.94-3.193l2.945,4.702c-0.969,1.938-2.818,3.824-4.996,5.188c-3.918,2.454-7.805,2.828-14.92,1.343
	c-2.215,6.724-6.369,12.478-12.728,16.459c-10.014,6.271-21.342,5.607-27.286-3.885c-4.636-7.402-2.89-14.68,1.971-23.18
	c-5.762-1.847-10.545-4.062-13.654-9.026c-5.018-8.012-2.358-17.314,6.176-22.661c8.796-5.508,16.804-3.369,21.22,3.685
	c4.362,6.967,2.322,13.58-3.213,22.746l22.737,6.489c0.562-5.687-0.264-11.839-2.401-17.772L546.45,821.576z M540.663,850.661
	l-0.338-0.151l-25.004-7.013c-3.447,5.917-4.641,10.787-0.985,16.621c3.6,5.748,10.506,6.515,16.602,2.697
	C535.641,859.87,538.782,855.598,540.663,850.661z M513.551,834.665c5.153-7.835,6.012-11.888,2.957-16.764
	c-2.236-3.57-6.627-5.55-11.504-2.494c-4.269,2.672-6.06,7.553-2.732,12.864C504.616,832.017,508.855,833.363,513.551,834.665z"/>
</svg>
