<svg version="1.1"  xmlns="http://www.w3.org/2000/svg" xmlns:xlink="http://www.w3.org/1999/xlink" x="0px" y="0px"
	  viewBox="0 0 382.493 135.571" enable-background="new 0 0 382.493 135.571"
	 xml:space="preserve">
<polygon points="47.807,62.357 3.366,62.357 3.366,0 46.916,0 46.916,7.127 11.68,7.127 11.68,26.724 39.691,26.724 39.691,33.752
	11.68,33.752 11.68,55.23 47.807,55.23 "/>
<path d="M73.979,17.915c12.669,0,19.499,8.513,20.39,18.905l-7.226,0.495c-0.693-7.622-5.245-12.768-13.263-12.768
	c-8.117,0-13.66,6.236-13.66,16.232c0,9.997,5.543,16.233,13.66,16.233c8.018,0,12.57-5.444,13.263-13.065l7.226,0.693
	c-0.891,10.491-7.721,18.905-20.39,18.905c-13.065,0-22.172-9.008-22.172-22.766C51.807,27.022,60.914,17.915,73.979,17.915"/>
<path d="M121.6,63.545c-12.669,0-21.974-9.305-21.974-22.765c0-13.462,9.305-22.865,21.974-22.865
	c12.768,0,22.172,9.403,22.172,22.865C143.771,54.24,134.368,63.545,121.6,63.545 M121.6,57.21c8.81,0,13.759-6.83,13.759-16.43
	c0-9.701-4.949-16.431-13.759-16.431c-8.711,0-13.56,6.73-13.56,16.431C108.04,50.38,112.889,57.21,121.6,57.21"/>
<rect x="150.895" y="0" width="8.215" height="62.357"/>
<path d="M208.688,47.708c-2.08,9.898-9.403,15.837-20.193,15.837c-12.867,0-22.271-8.711-22.271-22.172
	c0-13.659,9.404-23.458,21.876-23.458c13.758,0,20.785,9.799,20.785,21.578v3.167H174.44c0.397,8.612,6.434,14.451,14.155,14.451
	c7.225,0,11.581-3.464,13.263-10.194L208.688,47.708z M200.472,37.612c-0.198-7.028-4.256-13.461-12.372-13.461
	c-7.82,0-12.57,6.236-13.461,13.461H200.472z"/>
<path d="M54.241,102.117c-1.881,7.523-5.245,14.649-9.898,20.291c2.97,3.266,5.543,5.245,9.502,5.245c1.486,0,2.969-0.1,4.85-0.594
	v5.345c-1.782,1.089-4.256,1.682-6.731,1.682c-4.453,0-7.819-1.682-12.867-6.532c-5.246,4.355-11.58,6.929-18.806,6.929
	C8.909,134.482,0,128.148,0,117.359c0-8.412,5.147-13.46,13.461-17.915c-3.76-4.454-6.532-8.709-6.532-14.352
	c0-9.106,6.928-15.343,16.629-15.343c9.996,0,15.44,5.84,15.44,13.858c0,7.919-5.047,12.272-14.253,16.925l15.243,16.926
	c3.365-4.355,5.84-9.799,7.127-15.737L54.241,102.117z M34.643,122.902l-0.198-0.296l-16.827-18.509
	c-5.839,3.067-9.304,6.434-9.304,13.063c0,6.533,5.246,10.69,12.175,10.69C25.834,127.852,30.585,125.97,34.643,122.902
	 M20.687,95.98c8.215-3.762,10.986-6.632,10.986-12.174c0-4.06-2.572-7.92-8.115-7.92c-4.851,0-8.81,3.069-8.81,9.107
	C14.748,89.249,17.52,92.517,20.687,95.98"/>
<path d="M115.694,124.685l6.038,6.631l-4.949,4.256l-6.038-6.532c-4.949,3.464-11.185,5.443-18.113,5.443
	c-18.212,0-30.981-13.164-30.981-32.365c0-19.202,12.769-32.367,30.981-32.367c18.113,0,30.98,13.165,30.98,32.367
	C123.612,111.224,120.643,119.042,115.694,124.685 M92.632,77.075c-13.461,0-22.172,9.799-22.172,25.042
	c0,15.242,8.711,25.14,22.172,25.14c5.246,0,9.601-1.286,13.065-3.761l-7.126-7.919l5.047-4.354l6.731,7.521
	c2.871-4.157,4.356-9.798,4.356-16.628C114.705,86.874,106.093,77.075,92.632,77.075"/>
<path d="M161.851,90.041h8.215v43.254h-8.215v-7.62c-2.079,5.146-7.622,8.807-14.154,8.807c-11.283,0-15.441-7.422-15.441-17.517
	V90.041h8.215v26.132c0,7.225,3.168,11.877,9.998,11.877c6.433,0,11.382-5.147,11.382-13.165V90.041z"/>
<path d="M214.208,124.783c0,2.276,1.286,3.365,3.365,3.365c0.989,0,2.573-0.297,3.761-0.99v4.454
	c-1.484,1.484-3.267,2.574-6.632,2.574c-4.454,0-7.819-3.466-8.314-8.81c-2.276,5.048-8.314,9.105-15.639,9.105
	c-8.116,0-13.56-4.454-13.56-11.976c0-8.215,6.928-11.481,17.421-13.561l11.679-2.375v-1.781c0-5.939-3.464-9.602-9.502-9.602
	c-6.236,0-9.601,3.662-10.987,8.71l-7.226-0.99c1.584-8.115,8.117-14.055,18.312-14.055c10.889,0,17.322,5.543,17.322,16.53V124.783
	z M206.29,111.816l-9.7,1.98c-6.928,1.483-11.185,3.067-11.185,8.115c0,3.663,2.475,6.632,7.424,6.632
	c7.621,0,13.461-5.741,13.461-14.55V111.816z"/>
<path d="M252.783,98.257c-2.376-1.287-4.059-1.782-6.73-1.782c-6.235,0-10.888,5.642-10.888,13.957v22.864h-8.215V90.042h8.215
	v8.809c1.583-4.948,6.038-9.997,12.274-9.997c2.672,0,4.65,0.692,6.136,1.979L252.783,98.257z"/>
<path d="M263.255,95.98h-6.533v-4.453l2.772-0.496c4.058-0.791,4.948-2.771,5.938-6.928l1.286-6.038h4.653v11.976h12.174v5.939
	h-12.174v26.229c0,3.86,1.583,5.643,5.344,5.643c2.771,0,5.642-1.188,8.117-2.573v5.542c-3.168,2.375-6.335,3.662-11.086,3.662
	c-6.138,0-10.492-2.87-10.492-11.282V95.98z"/>
<path d="M290.544,70.938h8.513v9.304h-8.513V70.938z M298.958,133.295h-8.216V90.042h8.216V133.295z"/>
<path d="M348.545,118.646c-2.08,9.898-9.403,15.835-20.193,15.835c-12.865,0-22.271-8.709-22.271-22.17
	c0-13.659,9.405-23.458,21.876-23.458c13.758,0,20.786,9.799,20.786,21.578v3.167h-34.446c0.396,8.611,6.435,14.451,14.155,14.451
	c7.225,0,11.58-3.464,13.263-10.195L348.545,118.646z M340.33,108.551c-0.198-7.028-4.255-13.461-12.372-13.461
	c-7.82,0-12.57,6.235-13.461,13.461H340.33z"/>
<path d="M381.701,98.257c-2.376-1.287-4.058-1.782-6.729-1.782c-6.236,0-10.888,5.642-10.888,13.957v22.864h-8.216V90.042h8.216
	v8.809c1.583-4.948,6.037-9.997,12.273-9.997c2.672,0,4.65,0.692,6.136,1.979L381.701,98.257z"/>
</svg>
