<svg version="1.1" xmlns="http://www.w3.org/2000/svg" xmlns:xlink="http://www.w3.org/1999/xlink" x="0px" y="0px"  viewBox="-45.629 40.411 125.629 13.767"
	 enable-background="new -45.629 40.411 125.629 13.767" xml:space="preserve">
<polygon points="-36.334,53.676 -45.629,53.676 -45.629,40.634 -36.521,40.634 -36.521,42.125 -43.891,42.125 -43.891,46.223
	-38.032,46.223 -38.032,47.693 -43.891,47.693 -43.891,52.186 -36.334,52.186 "/>
<path d="M-30.86,44.381c2.649,0,4.078,1.781,4.265,3.954l-1.511,0.104c-0.145-1.595-1.097-2.671-2.774-2.671
	c-1.698,0-2.857,1.305-2.857,3.396s1.159,3.396,2.857,3.396c1.677,0,2.629-1.139,2.774-2.732l1.511,0.145
	c-0.187,2.194-1.615,3.954-4.265,3.954c-2.733,0-4.638-1.884-4.638-4.762S-33.593,44.381-30.86,44.381"/>
<path d="M-20.9,53.925c-2.65,0-4.596-1.946-4.596-4.762s1.946-4.782,4.596-4.782c2.67,0,4.637,1.967,4.637,4.782
	S-18.23,53.925-20.9,53.925 M-20.9,52.6c1.843,0,2.878-1.429,2.878-3.437c0-2.028-1.035-3.437-2.878-3.437
	c-1.822,0-2.836,1.408-2.836,3.437C-23.736,51.171-22.722,52.6-20.9,52.6"/>
<rect x="-14.773" y="40.634" width="1.718" height="13.042"/>
<path d="M-2.685,50.612c-0.436,2.07-1.967,3.312-4.224,3.312c-2.691,0-4.658-1.822-4.658-4.638c0-2.856,1.967-4.906,4.575-4.906
	c2.877,0,4.348,2.05,4.348,4.514v0.662h-7.205c0.083,1.801,1.346,3.022,2.96,3.022c1.512,0,2.422-0.725,2.773-2.132L-2.685,50.612z
	 M-4.404,48.5c-0.041-1.469-0.891-2.814-2.588-2.814c-1.635,0-2.629,1.304-2.815,2.814H-4.404z"/>
<path d="M11.345,47.181c-0.394,1.573-1.097,3.063-2.07,4.243c0.621,0.684,1.16,1.098,1.987,1.098c0.311,0,0.621-0.021,1.015-0.124
	v1.118c-0.373,0.228-0.89,0.352-1.408,0.352c-0.932,0-1.636-0.352-2.691-1.366C7.08,53.412,5.755,53.95,4.244,53.95
	C1.863,53.949,0,52.625,0,50.369c0-1.76,1.077-2.816,2.815-3.748c-0.787-0.932-1.366-1.821-1.366-3.002
	c0-1.904,1.449-3.208,3.478-3.208c2.091,0,3.229,1.222,3.229,2.898c0,1.656-1.056,2.567-2.981,3.541l3.188,3.539
	c0.704-0.91,1.221-2.049,1.491-3.291L11.345,47.181z M7.246,51.527l-0.042-0.062l-3.519-3.871c-1.221,0.642-1.946,1.346-1.946,2.731
	c0,1.367,1.097,2.236,2.546,2.236C5.403,52.562,6.397,52.17,7.246,51.527 M4.327,45.896c1.718-0.786,2.298-1.387,2.298-2.546
	c0-0.849-0.538-1.656-1.697-1.656c-1.015,0-1.843,0.642-1.843,1.905C3.084,44.489,3.665,45.173,4.327,45.896"/>
<path d="M24.198,51.9l1.263,1.387l-1.035,0.891l-1.263-1.366c-1.035,0.725-2.339,1.139-3.788,1.139c-3.809,0-6.48-2.753-6.48-6.77
	s2.671-6.77,6.48-6.77c3.788,0,6.479,2.753,6.479,6.77C25.854,49.086,25.233,50.721,24.198,51.9 M19.375,41.943
	c-2.815,0-4.638,2.049-4.638,5.237s1.822,5.258,4.638,5.258c1.097,0,2.008-0.269,2.732-0.786l-1.49-1.656l1.056-0.911l1.408,1.573
	c0.601-0.869,0.911-2.049,0.911-3.479C23.991,43.992,22.19,41.943,19.375,41.943"/>
<path d="M33.852,44.654h1.718v9.047h-1.718v-1.594c-0.435,1.076-1.594,1.842-2.96,1.842c-2.36,0-3.229-1.552-3.229-3.663v-5.632
	h1.718v5.467c0,1.511,0.663,2.483,2.091,2.483c1.346,0,2.38-1.077,2.38-2.753V44.654z"/>
<path d="M44.803,51.922c0,0.476,0.269,0.703,0.703,0.703c0.207,0,0.539-0.062,0.787-0.207v0.932
	c-0.311,0.311-0.684,0.538-1.387,0.538c-0.932,0-1.636-0.725-1.739-1.843c-0.476,1.057-1.739,1.904-3.271,1.904
	c-1.698,0-2.836-0.932-2.836-2.504c0-1.719,1.449-2.402,3.644-2.837l2.443-0.497v-0.372c0-1.242-0.725-2.009-1.988-2.009
	c-1.304,0-2.007,0.767-2.297,1.822l-1.511-0.207c0.331-1.697,1.698-2.939,3.83-2.939c2.277,0,3.623,1.159,3.623,3.457V51.922z
	 M43.146,49.209l-2.029,0.414c-1.449,0.311-2.339,0.642-2.339,1.697c0,0.767,0.518,1.387,1.553,1.387c1.594,0,2.815-1.2,2.815-3.043
	V49.209z"/>
<path d="M52.871,46.373C52.373,46.104,52.021,46,51.463,46c-1.304,0-2.277,1.181-2.277,2.92v4.781h-1.718v-9.046h1.718v1.843
	c0.331-1.035,1.264-2.092,2.567-2.092c0.559,0,0.973,0.145,1.283,0.414L52.871,46.373z"/>
<path d="M55.061,45.896h-1.366v-0.931l0.58-0.104c0.849-0.165,1.034-0.579,1.241-1.448l0.27-1.263h0.973v2.504h2.547v1.242h-2.547
	v5.486c0,0.808,0.332,1.18,1.118,1.18c0.579,0,1.181-0.248,1.698-0.537v1.158c-0.663,0.497-1.325,0.767-2.319,0.767
	c-1.284,0-2.194-0.601-2.194-2.36V45.896L55.061,45.896z"/>
<path d="M60.769,40.659h1.78v1.946h-1.78V40.659z M62.528,53.701h-1.718v-9.046h1.718V53.701z"/>
<path d="M72.899,50.638c-0.435,2.07-1.966,3.312-4.224,3.312c-2.69,0-4.658-1.821-4.658-4.637c0-2.856,1.968-4.906,4.576-4.906
	c2.877,0,4.348,2.05,4.348,4.514v0.662h-7.205c0.083,1.801,1.346,3.022,2.961,3.022c1.511,0,2.422-0.725,2.773-2.132L72.899,50.638z
	 M71.182,48.526c-0.041-1.47-0.891-2.815-2.588-2.815c-1.636,0-2.629,1.305-2.815,2.815H71.182z"/>
<path d="M79.834,46.373C79.338,46.104,78.985,46,78.427,46c-1.304,0-2.276,1.181-2.276,2.92v4.781h-1.719v-9.046h1.719v1.843
	c0.33-1.035,1.262-2.092,2.566-2.092c0.559,0,0.973,0.145,1.283,0.414L79.834,46.373z"/>
</svg>
